<svg id="Capa_1" enable-background="new 0 0 512 512" height="512" viewBox="0 0 512 512" width="512" xmlns="http://www.w3.org/2000/svg"><g><g><path d="m256 0c-141.159 0-256 114.841-256 256s114.841 256 256 256 256-114.841 256-256-114.841-256-256-256z" fill="#fff68e"/><path d="m256 0v512c141.159 0 256-114.841 256-256s-114.841-256-256-256z" fill="#ffc178"/><path d="m321 201c-35.841 0-65-29.159-65-65s29.159-65 65-65 65 29.159 65 65-29.159 65-65 65z" fill="#ff936b"/><path d="m146 231c-30.327 0-55-24.673-55-55s24.673-55 55-55 55 24.673 55 55-24.673 55-55 55z" fill="#ffc178"/><path d="m356 391c-30.327 0-55-24.673-55-55s24.673-55 55-55 55 24.673 55 55-24.673 55-55 55z" fill="#ff936b"/><g fill="#ffc178"><path d="m176 421c-24.813 0-45-20.187-45-45s20.187-45 45-45 45 20.187 45 45-20.187 45-45 45z"/><circle cx="96" cy="296" r="15"/><circle cx="256" cy="286" r="15"/></g><circle cx="391" cy="221" fill="#ff936b" r="15"/></g><path d="m256 271v30c8.284 0 15-6.716 15-15s-6.716-15-15-15z" fill="#ff936b"/></g></svg>