<svg id="Capa_1" enable-background="new 0 0 512 512" height="512" viewBox="0 0 512 512" width="512" xmlns="http://www.w3.org/2000/svg"><g><g><g><g><g><g><g><path d="m256 70c-8.285 0-15-6.716-15-15v-40c0-8.284 6.716-15 15-15 8.284 0 15 6.716 15 15v40c0 8.284-6.716 15-15 15z" fill="#fff68e"/><path d="m337.317 103.683c-5.858-5.858-5.858-15.355 0-21.213l28.284-28.284c5.858-5.858 15.355-5.858 21.213 0 5.858 5.858 5.858 15.355 0 21.213l-28.284 28.284c-5.858 5.857-15.355 5.857-21.213 0z" fill="#ffc178"/><path d="m126 200h-40c-8.284 0-15-6.716-15-15 0-8.284 6.716-15 15-15h40c8.284 0 15 6.716 15 15 0 8.284-6.716 15-15 15z" fill="#fff68e"/><path d="m426 200h-40c-8.284 0-15-6.716-15-15 0-8.284 6.716-15 15-15h40c8.284 0 15 6.716 15 15 0 8.284-6.716 15-15 15z" fill="#ffc178"/><path d="m153.47 103.683-28.285-28.284c-5.858-5.858-5.858-15.355 0-21.213 5.858-5.858 15.355-5.858 21.213 0l28.285 28.284c5.858 5.858 5.858 15.355 0 21.213-5.858 5.858-15.355 5.858-21.213 0z" fill="#fff68e"/></g></g></g></g></g><path d="m256 280.503c-52.383 0-95-42.617-95-95.001 0-52.383 42.617-95 95-95s95 42.617 95 95.001c0 52.383-42.617 95-95 95z" fill="#fff68e"/></g><g><g><g><g><g><g><g><path d="m256 70c8.284 0 15-6.716 15-15v-40c0-8.284-6.716-15-15-15z" fill="#ffc178"/></g></g></g></g></g><path d="m351 185.503c0-52.384-42.617-95.001-95-95.001v190.001c52.383 0 95-42.617 95-95z" fill="#ffc178"/></g></g><g><path d="m131 372v140h50c8.284 0 15-6.716 15-15 0-33.137 26.863-60 60-60 33.137 0 60 26.863 60 60 0 8.284 6.716 15 15 15h50v-140z" fill="#fff68e"/><path d="m256 372v65c33.137 0 59.999 26.863 59.999 60 0 8.284 6.716 15 15 15h50v-140z" fill="#ffc178"/><path d="m405 307h-299l-40 65v140h65v-15c0-69.036 55.964-125 125-125 69.036 0 125 55.964 125 125v15h65v-140z" fill="#8bb9ff"/><path d="m405 307h-149v65c69.035 0 125 55.964 125 125v15h65v-140z" fill="#7d81e7"/><path d="m1 497c0 8.285 6.716 15 15 15h50v-15c0-104.934 85.066-190 190-190 104.934 0 190 85.066 190 190v15h50c8.284 0 15-6.716 15-15 0-140.832-114.167-255-255-255-140.833 0-255 114.167-255 255z" fill="#ff7d47"/><g><path d="m511 497c0-140.833-114.167-255-255-255v65c104.934 0 190 85.066 190 190v15h50c8.284 0 15-6.716 15-15z" fill="#ff405c"/></g></g></g></svg>