<svg id="Capa_1" enable-background="new 0 0 512 512" height="512" viewBox="0 0 512 512" width="512" xmlns="http://www.w3.org/2000/svg"><g><path d="m366 497h-220c-22.091 0-40-17.909-40-40v-402c0-22.091 17.909-40 40-40h220c22.091 0 40 17.909 40 40v402c0 22.091-17.909 40-40 40z" fill="#bdfdff"/><path d="m366 15h-110v482h110c22.091 0 40-17.909 40-40v-402c0-22.091-17.909-40-40-40z" fill="#8bb9ff"/><path d="m121 457c0 13.785 11.215 25 25 25h220c13.785 0 25-11.215 25-25v-40h-270z" fill="none"/><path d="m366 30h-220c-13.785 0-25 11.215-25 25v362h270v-362c0-13.785-11.215-25-25-25z" fill="none"/><path d="m366 0h-220c-30.327 0-55 24.673-55 55v402c0 30.327 24.673 55 55 55h220c30.327 0 55-24.673 55-55v-402c0-30.327-24.673-55-55-55zm25 417h-120l-15 10-15-10h-120v-362c0-13.785 11.215-25 25-25h39.845l16.228 40.571c2.278 5.695 7.794 9.429 13.927 9.429h40l70.153-50h39.847c13.785 0 25 11.215 25 25z" fill="#5e54ac"/><path d="m366 0h-110v80h40c6.134 0 11.649-3.734 13.927-9.429l16.228-40.571h39.845c13.785 0 25 11.215 25 25v362h-120l-15 10v85h110c30.327 0 55-24.673 55-55v-402c0-30.327-24.673-55-55-55z" fill="#453d81"/><path d="m256 292c-27.57 0-50-22.43-50-50s22.43-50 50-50 50 22.43 50 50-22.43 50-50 50z" fill="#fff68e"/><path d="m361 257h-20c-8.284 0-15-6.716-15-15 0-8.284 6.716-15 15-15h20c8.284 0 15 6.716 15 15 0 8.284-6.716 15-15 15z" fill="#ffc178"/><path d="m171 257h-20c-8.284 0-15-6.716-15-15 0-8.284 6.716-15 15-15h20c8.284 0 15 6.716 15 15 0 8.284-6.716 15-15 15z" fill="#fff68e"/><path d="m305.498 192.502c-5.858-5.858-5.858-15.355 0-21.213l14.142-14.142c5.858-5.858 15.355-5.858 21.213 0 5.858 5.858 5.858 15.355 0 21.213l-14.142 14.142c-5.858 5.858-15.355 5.858-21.213 0z" fill="#ffc178"/><g fill="#fff68e"><path d="m171.147 326.853c-5.858-5.858-5.858-15.355 0-21.213l14.142-14.142c5.858-5.858 15.355-5.858 21.213 0 5.858 5.858 5.858 15.355 0 21.213l-14.142 14.142c-5.857 5.857-15.355 5.857-21.213 0z"/><path d="m256 172c-8.285 0-15-6.716-15-15v-20c0-8.284 6.716-15 15-15 8.284 0 15 6.716 15 15v20c0 8.284-6.716 15-15 15z"/><path d="m256 362c-8.285 0-15-6.716-15-15v-20c0-8.284 6.716-15 15-15 8.284 0 15 6.716 15 15v20c0 8.284-6.716 15-15 15z"/><path d="m185.289 192.502-14.142-14.142c-5.858-5.858-5.858-15.355 0-21.213 5.858-5.858 15.355-5.858 21.213 0l14.142 14.142c5.858 5.858 5.858 15.355 0 21.213-5.858 5.858-15.355 5.858-21.213 0z"/></g><path d="m319.64 326.853-14.142-14.142c-5.858-5.858-5.858-15.355 0-21.213 5.858-5.858 15.355-5.858 21.213 0l14.142 14.142c5.858 5.858 5.858 15.355 0 21.213-5.858 5.857-15.356 5.857-21.213 0z" fill="#ffc178"/><path d="m306 242c0-27.57-22.43-50-50-50v100c27.57 0 50-22.43 50-50z" fill="#ffc178"/><path d="m271 157v-20c0-8.284-6.716-15-15-15v50c8.284 0 15-6.716 15-15z" fill="#ffc178"/><path d="m256 362c8.284 0 15-6.716 15-15v-20c0-8.284-6.716-15-15-15z" fill="#ffc178"/><path d="m241 417v30c0 8.284 6.716 15 15 15s15-6.716 15-15v-30z" fill="#453d81"/><path d="m121 457c0 13.785 11.215 25 25 25h220c13.785 0 25-11.215 25-25v-40h-270z" fill="none"/><path d="m366 30h-220c-13.785 0-25 11.215-25 25v362h270v-362c0-13.785-11.215-25-25-25z" fill="none"/><path d="m256 462c8.284 0 15-6.716 15-15v-30h-15z" fill="#2e2654"/></g></svg>