<svg id="Capa_1" enable-background="new 0 0 512 512" height="512" viewBox="0 0 512 512" width="512" xmlns="http://www.w3.org/2000/svg"><g><g><path d="m366 497h-220c-22.091 0-40-17.909-40-40v-402c0-22.091 17.909-40 40-40h220c22.091 0 40 17.909 40 40v402c0 22.091-17.909 40-40 40z" fill="#bdfdff"/><path d="m366 15h-110v482h110c22.091 0 40-17.909 40-40v-402c0-22.091-17.909-40-40-40z" fill="#8bb9ff"/><g><path d="m121 457c0 13.785 11.215 25 25 25h220c13.785 0 25-11.215 25-25v-40h-270z" fill="none"/><path d="m366 30h-220c-13.785 0-25 11.215-25 25v362h270v-362c0-13.785-11.215-25-25-25z" fill="none"/><path d="m366 0h-220c-30.327 0-55 24.673-55 55v402c0 30.327 24.673 55 55 55h220c30.327 0 55-24.673 55-55v-402c0-30.327-24.673-55-55-55zm25 417h-120l-15 10-15-10h-120v-362c0-13.785 11.215-25 25-25h39.845l16.228 40.571c2.278 5.695 7.794 9.429 13.927 9.429h80c6.134 0 11.649-3.734 13.927-9.429l16.228-40.571h39.845c13.785 0 25 11.215 25 25z" fill="#5e54ac"/><path d="m366 0h-110v80h40c6.134 0 11.649-3.734 13.927-9.429l16.228-40.571h39.845c13.785 0 25 11.215 25 25v362h-120l-15 10v85h110c30.327 0 55-24.673 55-55v-402c0-30.327-24.673-55-55-55z" fill="#453d81"/></g><path d="m241 417v30c0 8.284 6.716 15 15 15s15-6.716 15-15v-30z" fill="#453d81"/><g><g><g fill="none"><path d="m121 457c0 13.785 11.215 25 25 25h220c13.785 0 25-11.215 25-25v-40h-270z"/><path d="m366 30h-220c-13.785 0-25 11.215-25 25v362h270v-362c0-13.785-11.215-25-25-25z"/></g></g><path d="m256 462c8.284 0 15-6.716 15-15v-30h-15z" fill="#2e2654"/></g></g><g><g><g><g><path d="m289.634 368.082c-7.501-3.516-10.732-12.447-7.216-19.948l8.954-19.102-17.431-9.297c-7.044-3.757-9.912-12.374-6.523-19.602l15-32c3.516-7.501 12.447-10.731 19.948-7.215 7.501 3.516 10.732 12.447 7.216 19.948l-8.954 19.102 17.431 9.297c7.044 3.757 9.912 12.374 6.523 19.602l-15 32c-3.516 7.501-12.447 10.731-19.948 7.215z" fill="#ffc178"/></g></g></g><g><g><g><path d="m209.634 368.082c-7.501-3.516-10.732-12.447-7.216-19.948l8.954-19.102-17.431-9.297c-7.044-3.757-9.912-12.374-6.523-19.602l15-32c3.516-7.501 12.447-10.731 19.948-7.215 7.501 3.516 10.732 12.447 7.215 19.948l-8.954 19.102 17.431 9.297c7.044 3.757 9.912 12.374 6.523 19.602l-15 32c-3.515 7.501-12.446 10.731-19.947 7.215z" fill="#fff68e"/></g></g></g></g><g><g><g><g><g><g><g><path d="m318.5 289.5h-125c-28.949 0-52.5-23.552-52.5-52.5 0-24.143 16.383-44.532 38.614-50.637 6.256-36.5 38.128-64.363 76.386-64.363s70.13 27.863 76.386 64.363c22.231 6.105 38.614 26.494 38.614 50.637 0 28.948-23.551 52.5-52.5 52.5z" fill="#5e54ac"/></g></g></g></g></g></g></g><path d="m318.5 289.5c28.949 0 52.5-23.552 52.5-52.5 0-24.143-16.383-44.532-38.614-50.637-6.256-36.5-38.128-64.363-76.386-64.363v167.5z" fill="#453d81"/></g></svg>