<svg id="Capa_1" enable-background="new 0 0 512 512" height="512" viewBox="0 0 512 512" width="512" xmlns="http://www.w3.org/2000/svg"><g><path d="m376.5 512c-68.38 0-132.667-26.629-181.02-74.98-48.351-48.353-74.98-112.64-74.98-181.02s26.629-132.667 74.98-181.02c48.353-48.351 112.64-74.98 181.02-74.98 8.284 0 15 6.716 15 15v482c0 8.284-6.716 15-15 15z" fill="#fff68e"/><path d="m120.5 256c0 68.38 26.629 132.667 74.98 181.02 48.353 48.351 112.64 74.98 181.02 74.98 8.284 0 15-6.716 15-15v-241z" fill="#ffc178"/><path d="m266.5 231c-30.327 0-55-24.673-55-55s24.673-55 55-55 55 24.673 55 55-24.673 55-55 55z" fill="#ffc178"/><g fill="#ff936b"><path d="m296.5 421c-24.813 0-45-20.187-45-45s20.187-45 45-45 45 20.187 45 45-20.187 45-45 45z"/><circle cx="216.5" cy="296" r="15"/></g></g></svg>