<svg id="Capa_1" enable-background="new 0 0 512 512" height="512" viewBox="0 0 512 512" width="512" xmlns="http://www.w3.org/2000/svg"><g><g><path d="m242 407c0 57.99 47.01 105 105 105s105-47.01 105-105c0-33.445-15.638-63.236-40-82.465v-259.535c0-35.898-29.101-65-65-65-35.898 0-65 29.101-65 65v259.536c-24.362 19.228-40 49.019-40 82.464z" fill="#e2dff4"/><path d="m452 407c0-33.445-15.638-63.236-40-82.465v-259.535c0-35.898-29.101-65-65-65v512c57.99 0 105-47.01 105-105z" fill="#bebcdd"/><path d="m347 482c-41.355 0-75-33.645-75-75 0-23.103 10.419-44.577 28.586-58.916l11.414-9.008v-274.076c0-19.299 15.701-35 35-35s35 15.701 35 35v274.076l11.414 9.008c18.167 14.339 28.586 35.813 28.586 58.916 0 41.355-33.645 75-75 75z" fill="#f9f9f9"/><path d="m347 482c41.355 0 75-33.645 75-75 0-23.103-10.419-44.577-28.586-58.916l-11.414-9.008v-274.076c0-19.299-15.701-35-35-35z" fill="#e2dff4"/><path d="m362 364.58v-289.58c0-8.284-6.716-15-15-15s-15 6.716-15 15v289.58c-17.459 6.192-30 22.865-30 42.42 0 24.813 20.187 45 45 45s45-20.187 45-45c0-19.555-12.541-36.228-30-42.42z" fill="#ff7d47"/><g><path d="m362 364.58v-289.58c0-8.284-6.716-15-15-15v392c24.813 0 45-20.187 45-45 0-19.555-12.541-36.228-30-42.42z" fill="#ff405c"/></g><g fill="#453d81"><path d="m497 90h-30c-8.284 0-15-6.716-15-15s6.716-15 15-15h30c8.284 0 15 6.716 15 15s-6.716 15-15 15z"/><path d="m482 150h-15c-8.284 0-15-6.716-15-15s6.716-15 15-15h15c8.284 0 15 6.716 15 15s-6.716 15-15 15z"/><path d="m497 210h-30c-8.284 0-15-6.716-15-15s6.716-15 15-15h30c8.284 0 15 6.716 15 15s-6.716 15-15 15z"/><path d="m482 270h-15c-8.284 0-15-6.716-15-15s6.716-15 15-15h15c8.284 0 15 6.716 15 15s-6.716 15-15 15z"/><path d="m497 330h-30c-8.284 0-15-6.716-15-15s6.716-15 15-15h30c8.284 0 15 6.716 15 15s-6.716 15-15 15z"/></g></g><g><g><path d="m125 180c-30.327 0-55-24.673-55-55s24.673-55 55-55 55 24.673 55 55-24.673 55-55 55z" fill="#fff68e"/><path d="m35 140h-20c-8.284 0-15-6.716-15-15 0-8.284 6.716-15 15-15h20c8.284 0 15 6.716 15 15 0 8.284-6.716 15-15 15z" fill="#fff68e"/><path d="m235 140h-20c-8.284 0-15-6.716-15-15 0-8.284 6.716-15 15-15h20c8.284 0 15 6.716 15 15 0 8.284-6.716 15-15 15z" fill="#ffc178"/><path d="m36.612 213.389c-5.858-5.858-5.858-15.356 0-21.213l14.142-14.142c5.858-5.858 15.355-5.858 21.213 0 5.858 5.858 5.858 15.355 0 21.213l-14.142 14.142c-5.858 5.857-15.355 5.857-21.213 0z" fill="#fff68e"/><path d="m178.033 71.967c-5.858-5.858-5.858-15.356 0-21.213l14.142-14.142c5.858-5.858 15.355-5.858 21.213 0 5.858 5.858 5.858 15.355 0 21.213l-14.142 14.142c-5.858 5.858-15.355 5.858-21.213 0z" fill="#ffc178"/><path d="m125 250c-8.284 0-15-6.716-15-15v-20c0-8.284 6.716-15 15-15 8.284 0 15 6.716 15 15v20c0 8.284-6.716 15-15 15z" fill="#fff68e"/><path d="m125 50c-8.284 0-15-6.716-15-15v-20c0-8.284 6.716-15 15-15 8.284 0 15 6.716 15 15v20c0 8.284-6.716 15-15 15z" fill="#fff68e"/><path d="m192.175 213.389-14.142-14.142c-5.858-5.858-5.858-15.355 0-21.213 5.858-5.858 15.355-5.858 21.213 0l14.142 14.142c5.858 5.858 5.858 15.355 0 21.213-5.858 5.857-15.355 5.857-21.213 0z" fill="#ffc178"/><path d="m50.754 71.967-14.143-14.142c-5.858-5.858-5.858-15.355 0-21.213 5.858-5.858 15.355-5.858 21.213 0l14.142 14.142c5.858 5.858 5.858 15.355 0 21.213-5.857 5.858-15.354 5.858-21.212 0z" fill="#fff68e"/></g><g><g fill="#ffc178"><path d="m180 125c0-30.327-24.673-55-55-55v110c30.327 0 55-24.673 55-55z"/><path d="m140 235v-20c0-8.284-6.716-15-15-15v50c8.284 0 15-6.716 15-15z"/><path d="m140 35v-20c0-8.284-6.716-15-15-15v50c8.284 0 15-6.716 15-15z"/></g></g></g></g></svg>