<svg id="Capa_1" enable-background="new 0 0 512 512" height="512" viewBox="0 0 512 512" width="512" xmlns="http://www.w3.org/2000/svg"><g><g><path d="m342.942 452.68c-54.405-19.802-82.558-80.174-62.756-134.58 8.262-22.7 34.417-48.824 79.96-79.866 32.143-21.909 61.703-37.745 62.946-38.409 3.758-2.006 8.192-2.32 12.195-.863s7.198 4.548 8.787 8.499c.525 1.307 12.991 32.439 23.532 69.884 14.934 53.053 18.177 89.879 9.915 112.578-9.592 26.356-28.873 47.397-54.292 59.25s-53.932 13.099-80.287 3.507z" fill="#b2fa09"/><path d="m467.606 277.346c-10.541-37.444-23.006-68.576-23.532-69.884-1.589-3.952-4.784-7.042-8.787-8.499l-92.346 253.717c26.355 9.592 54.868 8.348 80.287-3.505s44.7-32.895 54.292-59.25c8.263-22.7 5.02-59.525-9.914-112.579z" fill="#70da40"/><path d="m315.971 497c0-37.11 11.243-72.798 32.515-103.207l.974-1.393c4.748-6.788 14.1-8.442 20.889-3.695 6.789 4.748 8.443 14.101 3.695 20.889l-.975 1.394c-17.728 25.343-27.098 55.085-27.098 86.012" fill="#9b5e34"/><path d="m211.385 404.797c-69.95-25.46-106.146-103.081-80.686-173.031 10.497-28.841 45.734-63.855 104.731-104.066 42.637-29.061 81.82-50.053 83.467-50.932 3.758-2.006 8.192-2.32 12.195-.863s7.198 4.547 8.787 8.499c.697 1.732 17.219 42.999 31.201 92.668 19.347 68.727 23.834 118.198 13.336 147.039-25.46 69.951-103.081 106.146-173.031 80.686z" fill="#b2fa09"/><path d="m371.08 177.072c-13.982-49.669-30.504-90.936-31.201-92.668-1.589-3.952-4.784-7.042-8.787-8.499l-119.707 328.892c69.95 25.46 147.571-10.736 173.031-80.686 10.497-28.841 6.011-78.312-13.336-147.039z" fill="#70da40"/><path d="m184.414 497v-8.041c0-69.976 18.43-139.032 53.297-199.701 4.128-7.182 13.297-9.659 20.479-5.531 7.183 4.128 9.659 13.297 5.531 20.479-32.258 56.129-49.308 120.015-49.308 184.753v8.041" fill="#9b5e34"/><path d="m275 255h-229c-8.284 0-15-6.716-15-15s6.716-15 15-15h229c8.271 0 15-6.729 15-15s-6.729-15-15-15c-8.284 0-15-6.716-15-15s6.716-15 15-15c24.813 0 45 20.187 45 45s-20.187 45-45 45z" fill="#f9f9f9"/><path d="m275 255c24.813 0 45-20.187 45-45 0-16.974-9.448-31.778-23.36-39.441l-10.652 29.265c2.482 2.677 4.012 6.247 4.012 10.176 0 7.636-5.738 13.944-13.127 14.87l-10.967 30.13z" fill="#e2dff4"/><path d="m497 512h-482c-8.284 0-15-6.716-15-15s6.716-15 15-15h482c8.284 0 15 6.716 15 15s-6.716 15-15 15z" fill="#b2fa09"/><path d="m205 90h-80c-8.284 0-15-6.716-15-15s6.716-15 15-15h80c8.271 0 15-6.729 15-15s-6.729-15-15-15c-8.284 0-15-6.716-15-15s6.716-15 15-15c24.813 0 45 20.187 45 45s-20.187 45-45 45z" fill="#f9f9f9"/><path d="m65 90h-50c-8.284 0-15-6.716-15-15s6.716-15 15-15h50c8.284 0 15 6.716 15 15s-6.716 15-15 15z" fill="#f9f9f9"/><path d="m466 90h-50c-8.284 0-15-6.716-15-15s6.716-15 15-15h50c8.271 0 15-6.729 15-15s-6.729-15-15-15c-8.284 0-15-6.716-15-15s6.716-15 15-15c24.813 0 45 20.187 45 45s-20.187 45-45 45z" fill="#e2dff4"/><path d="m65 405h-50c-8.284 0-15-6.716-15-15s6.716-15 15-15h50c8.271 0 15-6.729 15-15s-6.729-15-15-15c-8.284 0-15-6.716-15-15s6.716-15 15-15c24.813 0 45 20.187 45 45s-20.187 45-45 45z" fill="#f9f9f9"/></g><g><path d="m497 482h-241v30h241c8.284 0 15-6.716 15-15s-6.716-15-15-15z" fill="#70da40"/></g></g></svg>