<svg id="Capa_1" enable-background="new 0 0 512 512" height="512" viewBox="0 0 512 512" width="512" xmlns="http://www.w3.org/2000/svg"><g><g><path d="m408.75 74.965 39.108-39.107c7.811-7.81 20.474-7.81 28.284 0 7.81 7.81 7.81 20.474 0 28.284l-39.107 39.108 21.213 21.213 39.107-39.108c19.526-19.526 19.526-51.184 0-70.71-19.526-19.526-51.185-19.527-70.711 0l-39.107 39.107z" fill="#453d81"/><path d="m476.142 35.858c7.811 7.81 7.811 20.474 0 28.284l-39.107 39.108 21.213 21.213 39.107-39.108c19.526-19.526 19.526-51.184 0-70.71z" fill="#2e2654"/><circle cx="255" cy="257" fill="#bdfdff" r="240"/><path d="m255 497c132.548 0 240-107.452 240-240 0-66.274-26.863-126.274-70.294-169.706l-339.411 339.412c43.431 43.431 103.431 70.294 169.705 70.294z" fill="#8bb9ff"/><circle cx="255" cy="257" fill="#f9f9f9" r="180"/><path d="m255 437c99.411 0 180-80.589 180-180 0-49.706-20.147-94.706-52.721-127.279l-254.558 254.558c32.573 32.574 77.573 52.721 127.279 52.721z" fill="#e2dff4"/><path d="m435.312 76.688c-48.164-48.164-112.199-74.688-180.312-74.688s-132.149 26.524-180.312 74.688c-48.164 48.163-74.688 112.199-74.688 180.312s26.524 132.149 74.688 180.312c48.163 48.164 112.199 74.688 180.312 74.688s132.148-26.524 180.312-74.688c48.164-48.163 74.688-112.199 74.688-180.312s-26.524-132.149-74.688-180.312zm44.688 180.312c0 56.646-21.05 108.463-55.728 148.06l-21.256-21.256c29.272-34.119 46.984-78.43 46.984-126.804s-17.712-92.685-46.984-126.804l21.256-21.256c34.678 39.597 55.728 91.414 55.728 148.06zm-390 0c0-90.981 74.019-165 165-165s165 74.019 165 165-74.019 165-165 165-165-74.019-165-165zm313.059-169.273-21.256 21.256c-34.118-29.27-78.429-46.983-126.803-46.983s-92.685 17.713-126.803 46.984l-21.257-21.256c39.597-34.678 91.414-55.728 148.06-55.728s108.463 21.05 148.059 55.727zm-373.059 169.273c0-56.646 21.05-108.463 55.728-148.059l21.256 21.256c-29.271 34.118-46.984 78.429-46.984 126.803s17.713 92.685 46.984 126.803l-21.256 21.256c-34.678-39.596-55.728-91.413-55.728-148.059zm76.94 169.272 21.256-21.256c34.119 29.271 78.43 46.984 126.804 46.984s92.685-17.713 126.803-46.984l21.256 21.256c-39.596 34.678-91.413 55.728-148.059 55.728s-108.463-21.05-148.06-55.728z" fill="#5e54ac"/><path d="m510 257c0-68.113-26.524-132.149-74.688-180.312l-63.694 63.694c29.877 29.877 48.382 71.127 48.382 116.618 0 90.981-74.019 165-165 165-45.491 0-86.741-18.505-116.618-48.382l-63.694 63.694c48.163 48.164 112.199 74.688 180.312 74.688s132.148-26.524 180.312-74.688c48.164-48.163 74.688-112.199 74.688-180.312zm-255 225c-56.646 0-108.463-21.05-148.06-55.728l21.256-21.256c34.119 29.271 78.43 46.984 126.804 46.984s92.685-17.713 126.803-46.984l21.256 21.256c-39.596 34.678-91.413 55.728-148.059 55.728zm148.016-98.196c29.272-34.119 46.984-78.43 46.984-126.804s-17.712-92.685-46.984-126.804l21.256-21.256c34.678 39.597 55.728 91.414 55.728 148.06s-21.05 108.463-55.728 148.06z" fill="#453d81"/><path d="m255.005 370.995c-.321 0-.644-.01-.969-.031-6.395-.412-11.821-4.84-13.508-11.022l-18.957-69.512-69.513-18.958c-6.183-1.686-10.611-7.113-11.022-13.508-.412-6.395 3.284-12.345 9.199-14.81l169.706-70.71c5.61-2.338 12.078-1.058 16.376 3.24s5.577 10.765 3.239 16.375l-70.711 169.706c-2.338 5.614-7.82 9.23-13.84 9.23z" fill="#ff7d47"/></g><g><path d="m221.571 290.43 18.957 69.512c1.687 6.182 7.113 10.611 13.508 11.022.325.021.647.031.969.031 6.021 0 11.502-3.616 13.841-9.231l70.711-169.706c2.338-5.611 1.059-12.078-3.239-16.375z" fill="#ff405c"/></g></g></svg>