<svg id="Capa_1" enable-background="new 0 0 512 512" height="512" viewBox="0 0 512 512" width="512" xmlns="http://www.w3.org/2000/svg"><g><g><path d="m309.089 455.124c51.386-51.386 66.711-128.008 39.041-195.204-13.662-33.18-1.908-71.707 27.947-91.61 40.652-27.103 64.923-72.453 64.923-121.31v-2h-370v77.016c0 45.429 19.008 89.304 52.15 120.373 65.481 61.389 92.637 153.619 70.867 240.697l-2.569 10.275c-.301 1.203-.437 2.424-.437 3.639h76.201z" fill="#f9f9f9"/></g><g><path d="m256 45v452h11.213l41.876-41.876c51.386-51.386 66.711-128.008 39.041-195.204-13.662-33.18-1.908-71.707 27.947-91.61 40.652-27.103 64.923-72.453 64.923-121.31v-2z" fill="#e2dff4"/></g><g><g><path d="m256 90c-46.256 0-89.872-3.202-122.815-9.015-16.697-2.947-30.021-6.468-39.601-10.465-14.985-6.251-22.584-14.838-22.584-25.52s7.599-19.269 22.584-25.521c9.579-3.997 22.903-7.518 39.601-10.465 32.943-5.812 76.559-9.014 122.815-9.014s89.872 3.202 122.815 9.015c16.697 2.947 30.021 6.468 39.601 10.465 14.985 6.251 22.584 14.838 22.584 25.52s-7.599 19.269-22.584 25.521c-9.579 3.997-22.903 7.518-39.601 10.465-32.943 5.812-76.559 9.014-122.815 9.014z" fill="#e2dff4"/><path d="m418.416 70.521c14.985-6.252 22.584-14.839 22.584-25.521s-7.599-19.269-22.584-25.521c-9.579-3.997-22.903-7.518-39.601-10.465-32.943-5.812-76.559-9.014-122.815-9.014v90c46.256 0 89.872-3.202 122.815-9.015 16.698-2.947 30.022-6.467 39.601-10.464z" fill="#bebcdd"/><path d="m497 512h-482c-8.284 0-15-6.716-15-15s6.716-15 15-15h482c8.284 0 15 6.716 15 15s-6.716 15-15 15z" fill="#ffc178"/></g><g fill="#bebcdd"><path d="m476 172h-170c-8.284 0-15-6.716-15-15s6.716-15 15-15h170c8.284 0 15 6.716 15 15s-6.716 15-15 15z"/><path d="m371 252h-100c-8.284 0-15-6.716-15-15s6.716-15 15-15h100c8.284 0 15 6.716 15 15s-6.716 15-15 15z"/><path d="m376 412h-100c-8.284 0-15-6.716-15-15s6.716-15 15-15h100c8.284 0 15 6.716 15 15s-6.716 15-15 15z"/></g><path d="m206 172h-160c-8.284 0-15-6.716-15-15s6.716-15 15-15h160c8.284 0 15 6.716 15 15s-6.716 15-15 15z" fill="#e2dff4"/><path d="m226 312h-130c-8.284 0-15-6.716-15-15s6.716-15 15-15h130c8.284 0 15 6.716 15 15s-6.716 15-15 15z" fill="#e2dff4"/></g><g><g><path d="m497 482h-241v30h241c8.284 0 15-6.716 15-15s-6.716-15-15-15z" fill="#ff936b"/></g></g></g></svg>