<svg id="Capa_1" enable-background="new 0 0 512 512" height="512" viewBox="0 0 512 512" width="512" xmlns="http://www.w3.org/2000/svg"><g><path d="m416 130h-100c-35.841 0-65-29.159-65-65v-50c0-8.284 6.716-15 15-15h120c24.813 0 45 20.187 45 45v70c0 8.284-6.716 15-15 15z" fill="#ff7d47"/><path d="m386 0h-60v130h90c8.284 0 15-6.716 15-15v-70c0-24.813-20.187-45-45-45z" fill="#ff405c"/><path d="m401 155v-80c0-11.517 12.442-18.738 22.442-13.024l70 40c10.077 5.758 10.077 20.289 0 26.047l-70 40c-10 5.715-22.442-1.506-22.442-13.023z" fill="#ffc178"/><path d="m326 512c-8.284 0-15-6.716-15-15v-92c0-8.284 6.716-15 15-15s15 6.716 15 15v92c0 8.284-6.716 15-15 15z" fill="#5e54ac"/><path d="m326 390v122c8.284 0 15-6.716 15-15v-92c0-8.284-6.716-15-15-15z" fill="#453d81"/><path d="m106 80c-52.383 0-95 42.617-95 95v160c0 8.284 6.716 15 15 15 12.101 0 23.833-1.605 35-4.605l140-145.395v-25c0-52.383-42.617-95-95-95z" fill="#ff7d47"/><path d="m131 130c-38.598 0-70 31.402-70 70v145.395c52.848-14.199 92.991-59.748 99.172-115.395h25.828c8.284 0 15-6.716 15-15v-15c0-38.598-31.402-70-70-70z" fill="#ff405c"/><path d="m432.864 167.36-1.864-1.065v-91.295c0-8.284-6.716-15-15-15h-60c-30.327 0-55 24.673-55 55v55.001l17.645 30h-42.645-.001-129.999c-8.284 0-15 6.716-15 15v30c0 96.495 78.505 175 175 175h59.771c74.566-.001 135.229-60.664 135.229-135.23 0-48.405-26.109-93.394-68.136-117.411z" fill="#f9f9f9"/><path d="m432.864 167.36-1.864-1.065v-91.295c0-8.284-6.716-15-15-15h-60c-11.063 0-21.365 3.295-30 8.938v351.062h39.771c74.566 0 135.229-60.663 135.229-135.229 0-48.405-26.109-93.394-68.136-117.411z" fill="#e2dff4"/><path d="m318.644 200c30.942 0 58.087 20.633 66.369 50.446 15.026 54.094-37.5 102.479-90.182 83.07l-49.755-18.332c-7.774-2.864-16.398 1.116-19.262 8.89-2.864 7.774 1.116 16.398 8.89 19.262l49.756 18.331c11.222 4.134 22.83 6.151 34.331 6.151 24.355 0 48.22-9.05 66.847-26.209 27.423-25.261 38.26-63.27 28.28-99.194-11.845-42.637-51.022-72.415-95.274-72.415h-17.644v5c0 13.807-11.193 25-25 25h-.001.001z" fill="#e2dff4"/><path d="m196 447h290v30h-290z" fill="#453d81"/><path d="m326 447h160v30h-160z" fill="#2e2654"/><path d="m440.393 507.606c-5.858-5.858-5.858-15.355 0-21.213l24.394-24.393-24.394-24.394c-5.858-5.858-5.858-15.355 0-21.213 5.858-5.858 15.355-5.858 21.213 0l35 35c5.858 5.857 5.858 15.355 0 21.213l-35 35c-5.857 5.858-15.355 5.858-21.213 0z" fill="#453d81"/><path d="m150.393 507.606c-5.858-5.858-5.858-15.355 0-21.213l24.394-24.393-24.394-24.394c-5.858-5.858-5.858-15.355 0-21.213 5.858-5.858 15.355-5.858 21.213 0l35 35c5.858 5.857 5.858 15.355 0 21.213l-35 35c-5.857 5.858-15.355 5.858-21.213 0z" fill="#5e54ac"/><path d="m413.919 242.416c-11.184-40.257-46.737-69.037-87.919-72.125v30.116c27.813 2.975 51.396 22.616 59.013 50.04 12.009 43.233-19.131 82.813-59.013 87.059v30.023c21.816-1.605 42.855-10.457 59.639-25.918 27.422-25.261 38.259-63.27 28.28-99.195z" fill="#bebcdd"/></g></svg>