<svg id="Capa_1" enable-background="new 0 0 512 512" height="512" viewBox="0 0 512 512" width="512" xmlns="http://www.w3.org/2000/svg"><g><path d="m484.449 65.431c-13.126 15.843-30.332 24.569-48.449 24.569s-35.323-8.726-48.449-24.569c-5.999-7.241-17.104-7.241-23.102 0-13.126 15.843-30.332 24.569-48.449 24.569s-35.323-8.726-48.449-24.569c-5.999-7.241-17.104-7.241-23.102 0-22.242 26.85-55.291 32.261-82.238 13.473l-23.58-16.442v117.538h368.92l3.449-40.699v-64.301c0-14.051-17.587-20.39-26.551-9.569z" fill="#bdfdff"/><path d="m507.551 180 3.449-40.699v-64.301c0-14.051-17.587-20.39-26.551-9.569-13.126 15.843-30.332 24.569-48.449 24.569s-35.323-8.726-48.449-24.569c-5.999-7.241-17.104-7.241-23.102 0-5.507 6.647-11.739 12.023-18.449 16.046v98.523z" fill="#8bb9ff"/><path d="m507.551 135.431c-5.999-7.241-17.104-7.241-23.103 0-13.125 15.843-30.331 24.569-48.448 24.569s-35.323-8.726-48.449-24.569c-5.999-7.241-17.104-7.241-23.103 0-13.125 15.843-30.331 24.569-48.448 24.569s-35.323-8.726-48.449-24.569c-5.999-7.241-17.104-7.241-23.103 0-13.125 15.843-30.331 24.569-48.448 24.569s-35.323-8.726-48.449-24.569l-8.92-10.767v315.336h372.369v-300.699c-1.174-1.244-2.331-2.522-3.449-3.87z" fill="#8bb9ff"/><g><path d="m511 139.301c-1.174-1.245-2.331-2.522-3.449-3.871-5.999-7.241-17.104-7.241-23.103 0-13.125 15.844-30.331 24.57-48.448 24.57s-35.323-8.726-48.449-24.569c-5.999-7.241-17.104-7.241-23.103 0-5.507 6.647-11.739 12.023-18.449 16.046v288.523h165v-300.699z" fill="#7d81e7"/></g><path d="m496 512h-480c-8.284 0-15-6.716-15-15v-482c0-8.284 6.716-15 15-15h12.994c38.583 0 75.569 14.276 104.145 40.2s46.377 61.349 50.124 99.749l15.335 157.188v-.001c6.276 64.343 59.76 112.864 124.408 112.864h187.994v87c0 8.284-6.716 15-15 15z" fill="#c9885b"/><path d="m406.607 295.607c5.858-5.858 5.858-15.355 0-21.213l-50-50c-5.858-5.858-15.355-5.858-21.213 0l-50 50c-5.858 5.858-5.858 15.355 0 21.213 5.858 5.858 15.355 5.858 21.213 0l24.393-24.394v83.787c0 8.284 6.716 15 15 15 8.284 0 15-6.716 15-15v-83.787l24.394 24.394c5.857 5.857 15.355 5.857 21.213 0z" fill="#5e54ac"/><g><path d="m496 512c8.284 0 15-6.716 15-15v-87h-165v102z" fill="#9b5e34"/><path d="m346 370c8.284 0 15-6.716 15-15v-83.787l24.394 24.394c5.858 5.858 15.355 5.858 21.213 0 5.858-5.858 5.858-15.355 0-21.213l-50-50c-2.929-2.929-6.768-4.394-10.607-4.394z" fill="#453d81"/></g></g></svg>