<svg id="Capa_1" enable-background="new 0 0 512 512" height="512" viewBox="0 0 512 512" width="512" xmlns="http://www.w3.org/2000/svg"><g><g><g><g><g><g><g><path d="m327 70c-8.284 0-15-6.716-15-15v-40c0-8.284 6.716-15 15-15 8.284 0 15 6.716 15 15v40c0 8.284-6.716 15-15 15z" fill="#fff68e"/><path d="m224.47 103.683-28.284-28.284c-5.858-5.858-5.858-15.355 0-21.213 5.858-5.858 15.355-5.858 21.213 0l28.284 28.284c5.858 5.858 5.858 15.355 0 21.213-5.858 5.858-15.355 5.857-21.213 0z" fill="#fff68e"/><g fill="#ffc178"><path d="m436.602 315.815-28.284-28.284c-5.858-5.858-5.858-15.355 0-21.213 5.858-5.858 15.355-5.858 21.213 0l28.284 28.284c5.858 5.858 5.858 15.355 0 21.213-5.858 5.857-15.356 5.857-21.213 0z"/><path d="m497 200h-40c-8.284 0-15-6.716-15-15 0-8.284 6.716-15 15-15h40c8.284 0 15 6.716 15 15 0 8.284-6.716 15-15 15z"/><path d="m408.317 103.683c-5.858-5.858-5.858-15.355 0-21.213l28.284-28.284c5.858-5.858 15.355-5.858 21.213 0 5.858 5.858 5.858 15.355 0 21.213l-28.284 28.284c-5.858 5.857-15.355 5.858-21.213 0z"/></g></g></g></g></g></g></g><path d="m327 280.503c-52.383 0-95-42.617-95-95s42.617-95 95-95 95 42.617 95 95-42.617 95-95 95z" fill="#fff68e"/><path d="m327 90.503v190c52.383 0 95-42.617 95-95s-42.617-95-95-95z" fill="#ffc178"/><g><path d="m195 512c-107.523 0-195-87.477-195-195s87.477-195 195-195 195 87.477 195 195-87.477 195-195 195z" fill="#5e54ac"/><path d="m195 122v390c107.523 0 195-87.477 195-195s-87.477-195-195-195z" fill="#453d81"/><path d="m250 302c-30.327 0-55-24.673-55-55s24.673-55 55-55 55 24.673 55 55-24.673 55-55 55z" fill="#2e2654"/><path d="m100 342c-24.813 0-45-20.187-45-45s20.187-45 45-45 45 20.187 45 45-20.187 45-45 45z" fill="#453d81"/><path d="m255 432c-24.813 0-45-20.187-45-45s20.187-45 45-45 45 20.187 45 45-20.187 45-45 45z" fill="#2e2654"/><circle cx="115" cy="402" fill="#453d81" r="15"/><circle cx="330" cy="322" fill="#2e2654" r="15"/></g><path d="m327 0v70c8.284 0 15-6.716 15-15v-40c0-8.284-6.716-15-15-15z" fill="#ffc178"/></g></svg>