<svg id="Capa_1" enable-background="new 0 0 512 512" height="512" viewBox="0 0 512 512" width="512" xmlns="http://www.w3.org/2000/svg"><g><g><g fill="#7d81e7"><path d="m159.83 75h124.34v30h-124.34z" transform="matrix(.848 -.53 .53 .848 -13.955 131.345)"/><path d="m347 33.432h30v143.137h-30z" transform="matrix(.707 -.707 .707 .707 31.781 286.727)"/></g><g><path d="m25 410h25v-30h-25c-8.284 0-15 6.716-15 15 0 8.285 6.716 15 15 15z" fill="#453d81"/><path d="m15 340h35v-30h-35c-8.284 0-15 6.716-15 15 0 8.285 6.716 15 15 15z" fill="#453d81"/><path d="m25 270h25v-30h-25c-8.284 0-15 6.716-15 15 0 8.285 6.716 15 15 15z" fill="#5e54ac"/><g fill="#453d81"><path d="m15 200h35v-30h-35c-8.284 0-15 6.716-15 15 0 8.285 6.716 15 15 15z"/><path d="m0 45c0 8.284 6.716 15 15 15h35v-30h-35c-8.284 0-15 6.716-15 15z"/><path d="m25 130h25v-30h-25c-8.284 0-15 6.716-15 15 0 8.285 6.716 15 15 15z"/></g></g><path d="m50 450h-35c-8.284 0-15 6.716-15 15 0 8.284 6.716 15 15 15h17v17c0 8.284 6.716 15 15 15 8.284 0 15-6.716 15-15v-35h-12z" fill="#453d81"/><path d="m117 502c-8.284 0-15-6.716-15-15v-25h30v25c0 8.285-6.716 15-15 15z" fill="#453d81"/><path d="m187 512c-8.284 0-15-6.716-15-15v-35h30v35c0 8.285-6.716 15-15 15z" fill="#453d81"/><path d="m257 502c-8.284 0-15-6.716-15-15v-25h30v25c0 8.285-6.716 15-15 15z" fill="#453d81"/><path d="m327 512c-8.284 0-15-6.716-15-15v-35h30v35c0 8.285-6.716 15-15 15z" fill="#2e2654"/><path d="m397 502c-8.284 0-15-6.716-15-15v-25h30v25c0 8.285-6.716 15-15 15z" fill="#2e2654"/><path d="m467 512c-8.284 0-15-6.716-15-15v-35h30v35c0 8.285-6.716 15-15 15z" fill="#2e2654"/><path d="m497 480h-465v-465c0-8.284 6.716-15 15-15 8.284 0 15 6.716 15 15v435h435c8.284 0 15 6.716 15 15 0 8.285-6.716 15-15 15z" fill="#5e54ac"/><path d="m497 450h-205v30h205c8.284 0 15-6.716 15-15s-6.716-15-15-15z" fill="#453d81"/><g fill="#bdfdff"><path d="m182 420h-60c-8.284 0-15-6.716-15-15v-200c0-8.284 6.716-15 15-15h60c8.284 0 15 6.716 15 15v200c0 8.284-6.716 15-15 15z"/><path d="m322 420h-60c-8.284 0-15-6.716-15-15v-250c0-8.284 6.716-15 15-15h60c8.284 0 15 6.716 15 15v250c0 8.284-6.716 15-15 15z"/><path d="m462 420h-60c-8.284 0-15-6.716-15-15v-170c0-8.284 6.716-15 15-15h60c8.284 0 15 6.716 15 15v170c0 8.284-6.716 15-15 15z"/><path d="m292 110c-24.813 0-45-20.187-45-45 0-20.703 25.898-51.173 33.836-60.019 5.961-6.642 16.367-6.642 22.328 0 7.938 8.846 33.836 39.316 33.836 60.019 0 24.814-20.186 45-45 45z"/><path d="m432 190c-24.813 0-45-20.187-45-45 0-20.703 25.898-51.173 33.836-60.019 5.961-6.642 16.367-6.642 22.328 0 7.938 8.846 33.836 39.316 33.836 60.019 0 24.814-20.186 45-45 45z"/><path d="m152 160c-24.813 0-45-20.187-45-45 0-20.703 25.898-51.173 33.836-60.019 5.961-6.642 16.367-6.642 22.328 0 7.938 8.846 33.836 39.316 33.836 60.019 0 24.814-20.186 45-45 45z"/></g><path d="m197 115c0-20.703-25.898-51.173-33.836-60.019-2.98-3.321-7.072-4.981-11.164-4.981v110c24.814 0 45-20.186 45-45z" fill="#8bb9ff"/><path d="m477 145c0-20.703-25.898-51.173-33.836-60.019-2.98-3.321-7.072-4.981-11.164-4.981v110c24.814 0 45-20.186 45-45z" fill="#8bb9ff"/><g><g fill="#8bb9ff"><path d="m322 140h-30v280h30c8.284 0 15-6.716 15-15v-250c0-8.284-6.716-15-15-15z"/><path d="m337 65c0-20.703-25.898-51.173-33.836-60.019-2.98-3.321-7.072-4.981-11.164-4.981v110c24.814 0 45-20.186 45-45z"/></g></g></g><g fill="#8bb9ff"><path d="m182 190h-30v230h30c8.284 0 15-6.716 15-15v-200c0-8.284-6.716-15-15-15z"/><path d="m462 220h-30v200h30c8.284 0 15-6.716 15-15v-170c0-8.284-6.716-15-15-15z"/></g></g></svg>