<svg id="Capa_1" enable-background="new 0 0 512 512" height="512" viewBox="0 0 512 512" width="512" xmlns="http://www.w3.org/2000/svg"><g><g><path d="m407 436h-302c-57.897 0-105-47.103-105-105 0-53.36 40.006-97.55 91.601-104.149 7.198-84.385 78.182-150.851 164.399-150.851 86.784 0 158.228 66.538 165.407 150.985 51.104 7.044 90.593 51.005 90.593 104.015 0 57.897-47.103 105-105 105z" fill="#f9f9f9"/></g><path d="m421.407 226.985c-7.179-84.447-78.623-150.985-165.407-150.985v360h151c57.897 0 105-47.103 105-105 0-53.01-39.489-96.971-90.593-104.015z" fill="#e2dff4"/></g></svg>