<svg id="Capa_1" enable-background="new 0 0 512 512" height="512" viewBox="0 0 512 512" width="512" xmlns="http://www.w3.org/2000/svg"><g><g><path d="m467 482c-8.284 0-15-6.716-15-15s6.716-15 15-15c8.271 0 15-6.729 15-15s-6.729-15-15-15h-101c-8.284 0-15-6.716-15-15s6.716-15 15-15h101c24.813 0 45 20.187 45 45s-20.187 45-45 45z" fill="#e2dff4"/><path d="m196 512c-8.284 0-15-6.716-15-15s6.716-15 15-15c8.271 0 15-6.729 15-15s-6.729-15-15-15h-100c-8.284 0-15-6.716-15-15s6.716-15 15-15h100c24.813 0 45 20.187 45 45s-20.187 45-45 45z" fill="#f9f9f9"/><path d="m46 452h-31c-8.284 0-15-6.716-15-15s6.716-15 15-15h31c8.284 0 15 6.716 15 15s-6.716 15-15 15z" fill="#f9f9f9"/><g fill="#e2dff4"><path d="m316 422h-30c-8.284 0-15-6.716-15-15s6.716-15 15-15h30c8.284 0 15 6.716 15 15s-6.716 15-15 15z"/><path d="m376 482h-90c-8.284 0-15-6.716-15-15s6.716-15 15-15h90c8.284 0 15 6.716 15 15s-6.716 15-15 15z"/></g></g><g><path d="m407 360h-302c-57.897 0-105-47.103-105-105 0-53.36 40.006-97.55 91.601-104.149 7.198-84.385 78.182-150.851 164.399-150.851 86.784 0 158.228 66.538 165.407 150.985 51.104 7.044 90.593 51.005 90.593 104.015 0 57.897-47.103 105-105 105z" fill="#f9f9f9"/><path d="m421.407 150.985c-7.179-84.447-78.623-150.985-165.407-150.985v360h151c57.897 0 105-47.103 105-105 0-53.01-39.489-96.971-90.593-104.015z" fill="#e2dff4"/></g></g></svg>