<svg id="Capa_1" enable-background="new 0 0 512 512" height="512" viewBox="0 0 512 512" width="512" xmlns="http://www.w3.org/2000/svg"><g><path d="m403.542 292h-276.542c-8.284 0-15-6.716-15-15s6.716-15 15-15h276.542c22.51 0 43.673-8.766 59.59-24.683 12.167-12.167 18.868-28.343 18.868-45.55s-6.701-33.384-18.868-45.551c-9.167-9.167-21.355-14.216-34.319-14.216s-25.152 5.049-34.319 14.216c-6.767 6.766-10.494 15.763-10.494 25.334 0 9.569 3.727 18.566 10.494 25.334 4.847 4.847 11.292 7.517 18.146 7.517s13.299-2.67 18.146-7.517c5.858-5.857 15.355-5.859 21.213 0 5.858 5.857 5.858 15.354 0 21.213-10.513 10.513-24.491 16.303-39.359 16.303s-28.846-5.79-39.359-16.304c-12.434-12.433-19.281-28.963-19.281-46.546 0-17.584 6.847-34.114 19.281-46.547 14.833-14.834 34.554-23.003 55.532-23.003s40.699 8.169 55.532 23.003c17.834 17.833 27.655 41.544 27.655 66.764s-9.821 48.931-27.655 66.764c-21.583 21.582-50.28 33.469-80.803 33.469z" fill="#f9f9f9"/><path d="m301.813 512c-20.978 0-40.699-8.169-55.533-23.003-12.433-12.433-19.28-28.963-19.28-46.547 0-17.583 6.847-34.113 19.281-46.547 10.513-10.514 24.491-16.304 39.359-16.304s28.846 5.79 39.359 16.304c5.857 5.858 5.857 15.355 0 21.213-5.858 5.857-15.356 5.859-21.213 0-4.847-4.847-11.291-7.517-18.146-7.517s-13.299 2.67-18.146 7.517c-6.767 6.768-10.494 15.765-10.494 25.334 0 9.57 3.727 18.567 10.494 25.334 9.167 9.167 21.355 14.216 34.319 14.216s25.152-5.049 34.319-14.216c12.167-12.167 18.868-28.344 18.868-45.551s-6.701-33.384-18.868-45.551c-15.917-15.916-37.08-24.682-59.59-24.682h-96.542c-8.284 0-15-6.716-15-15s6.716-15 15-15h96.542c30.523 0 59.22 11.887 80.803 33.47 17.834 17.833 27.655 41.544 27.655 66.763s-9.821 48.931-27.655 66.764c-14.833 14.834-34.554 23.003-55.532 23.003z" fill="#f9f9f9"/><path d="m385 422.233c0-25.22-9.821-48.931-27.655-66.764-21.583-21.583-50.28-33.47-80.803-33.47h-49.542v30h49.542c22.51 0 43.673 8.766 59.59 24.683 12.167 12.168 18.868 28.344 18.868 45.551s-6.701 33.384-18.868 45.551c-9.167 9.167-21.355 14.216-34.319 14.216s-25.152-5.049-34.319-14.216c-6.767-6.766-10.494-15.764-10.494-25.334 0-9.569 3.727-18.566 10.494-25.334 4.847-4.847 11.291-7.517 18.146-7.517s13.299 2.67 18.146 7.517c5.857 5.859 15.355 5.857 21.213 0s5.858-15.354 0-21.213c-10.513-10.513-24.491-16.303-39.359-16.303s-28.846 5.79-39.359 16.304c-12.434 12.433-19.281 28.963-19.281 46.546 0 17.584 6.847 34.114 19.28 46.547 14.834 14.834 34.555 23.003 55.533 23.003s40.699-8.169 55.532-23.003c17.834-17.833 27.655-41.544 27.655-66.764z" fill="#e2dff4"/><g fill="#f9f9f9"><path d="m67 292h-52c-8.284 0-15-6.716-15-15s6.716-15 15-15h52c8.284 0 15 6.716 15 15s-6.716 15-15 15z"/><path d="m120 352h-105c-8.284 0-15-6.716-15-15s6.716-15 15-15h105c8.284 0 15 6.716 15 15s-6.716 15-15 15z"/><circle cx="107" cy="447" r="15"/></g><circle cx="422" cy="62" fill="#e2dff4" r="15"/><circle cx="62" cy="132" fill="#f9f9f9" r="15"/><g><path d="m324.721 124.531-34.98 9.373-18.507-10.685c.494-2.667.766-5.411.766-8.218s-.271-5.552-.766-8.218l18.507-10.685 34.98 9.373c8.002 2.144 16.227-2.605 18.371-10.607 2.144-8.002-2.605-16.227-10.607-18.371l-26.492-7.098 7.099-26.492c2.144-8.002-2.604-16.227-10.606-18.371-8.002-2.144-16.227 2.605-18.371 10.606l-9.373 34.979-18.528 10.697c-4.155-3.556-8.959-6.37-14.213-8.233v-21.368l25.607-25.606c5.858-5.858 5.858-15.355 0-21.213-5.858-5.858-15.355-5.858-21.213 0l-19.395 19.393-19.394-19.394c-5.858-5.858-15.355-5.858-21.213 0-5.858 5.858-5.858 15.355 0 21.213l25.607 25.607v21.367c-5.254 1.864-10.058 4.677-14.213 8.233l-18.528-10.697-9.373-34.979c-2.144-8.002-10.369-12.75-18.371-10.606-8.002 2.144-12.751 10.369-10.606 18.371l7.099 26.492-26.492 7.098c-8.002 2.144-12.751 10.369-10.607 18.371 2.144 8.002 10.369 12.751 18.371 10.607l34.98-9.373 18.507 10.685c-.496 2.666-.767 5.41-.767 8.218s.271 5.552.766 8.218l-18.507 10.685-34.98-9.373c-8.002-2.144-16.227 2.605-18.371 10.607-2.144 8.002 2.605 16.227 10.607 18.371l26.492 7.098-7.099 26.492c-2.144 8.002 2.604 16.227 10.606 18.371 8.002 2.144 16.227-2.604 18.371-10.606l9.373-34.979 18.528-10.697c4.155 3.556 8.959 6.37 14.213 8.233v21.367l-25.607 25.606c-5.858 5.858-5.858 15.355 0 21.213 5.858 5.858 15.355 5.858 21.213 0l19.395-19.393 19.394 19.394c5.858 5.858 15.355 5.858 21.213 0 5.858-5.858 5.858-15.355 0-21.213l-25.607-25.607v-21.367c5.254-1.864 10.058-4.677 14.213-8.233l18.528 10.697 9.373 34.979c2.144 8.002 10.369 12.751 18.371 10.606 8.002-2.144 12.751-10.369 10.606-18.371l-7.099-26.492 26.492-7.098c8.002-2.144 12.751-10.369 10.607-18.371-2.143-8.002-10.368-12.75-18.37-10.606zm-97.721-24.531c8.271 0 15 6.729 15 15s-6.729 15-15 15-15-6.729-15-15 6.729-15 15-15z" fill="#f9f9f9"/><g fill="#e2dff4"><path d="m324.721 124.531-34.98 9.373-18.507-10.685c.494-2.667.766-5.411.766-8.218s-.271-5.552-.766-8.218l18.507-10.685 34.98 9.373c8.002 2.144 16.227-2.604 18.371-10.606 2.144-8.002-2.605-16.227-10.607-18.371l-26.492-7.098 7.099-26.492c2.144-8.002-2.605-16.227-10.606-18.371-8.002-2.144-16.227 2.604-18.371 10.606l-9.373 34.979-18.528 10.697c-4.155-3.556-8.959-6.37-14.213-8.233v-21.369l25.607-25.606c5.858-5.858 5.858-15.355 0-21.213-5.858-5.858-15.355-5.858-21.213 0l-19.395 19.393v76.213c8.271 0 15 6.729 15 15s-6.729 15-15 15v76.213l19.394 19.394c5.858 5.858 15.355 5.858 21.213 0 5.858-5.858 5.858-15.355 0-21.213l-25.607-25.607v-21.367c5.254-1.864 10.058-4.677 14.213-8.233l18.528 10.697 9.373 34.979c2.144 8.002 10.369 12.75 18.371 10.606 8.002-2.144 12.751-10.369 10.606-18.371l-7.099-26.492 26.492-7.098c8.002-2.144 12.751-10.369 10.607-18.371-2.143-8.002-10.368-12.751-18.37-10.606z"/><path d="m403.542 262h-176.542v30h176.542c30.523 0 59.22-11.887 80.803-33.47 17.834-17.833 27.655-41.544 27.655-66.763s-9.821-48.931-27.655-66.764c-14.833-14.834-34.554-23.003-55.532-23.003s-40.699 8.169-55.532 23.003c-12.434 12.433-19.281 28.963-19.281 46.547 0 17.583 6.847 34.113 19.28 46.547 10.513 10.514 24.491 16.304 39.359 16.304s28.846-5.79 39.359-16.304c5.857-5.858 5.857-15.355 0-21.213-5.858-5.859-15.355-5.857-21.213 0-4.847 4.847-11.291 7.517-18.146 7.517s-13.299-2.67-18.146-7.517c-6.766-6.768-10.493-15.765-10.493-25.334 0-9.57 3.727-18.567 10.494-25.334 9.167-9.167 21.355-14.216 34.319-14.216s25.152 5.049 34.319 14.216c12.167 12.167 18.868 28.344 18.868 45.551s-6.701 33.384-18.868 45.551c-15.917 15.916-37.08 24.682-59.59 24.682z"/></g></g></g></svg>