<svg id="Capa_1" enable-background="new 0 0 512 512" height="512" viewBox="0 0 512 512" width="512" xmlns="http://www.w3.org/2000/svg"><g><g><path d="m499.201 337.977c-2.144-8.002-10.369-12.75-18.371-10.606l-48.64 13.032-27.167-15.684c.286-1.543.492-3.113.615-4.707l68.315-18.305c8.002-2.144 12.75-10.369 10.606-18.371s-10.369-12.75-18.371-10.606l-68.324 18.307c-8.122-11.789-21.708-19.536-37.076-19.536-11.143 0-21.346 4.08-29.213 10.813l-22.25-12.846c1.09-4.312 1.674-8.822 1.674-13.468s-.584-9.156-1.674-13.468l22.25-12.846c7.868 6.733 18.07 10.813 29.213 10.813 15.367 0 28.954-7.747 37.076-19.536l68.324 18.307c8.002 2.144 16.227-2.604 18.371-10.606s-2.604-16.227-10.606-18.371l-68.315-18.305c-.124-1.594-.329-3.164-.615-4.707l27.167-15.684 48.64 13.032c8.002 2.144 16.227-2.605 18.371-10.606 2.144-8.002-2.604-16.227-10.607-18.371l-40.152-10.758 10.759-40.152c2.144-8.002-2.605-16.227-10.607-18.371-8.002-2.144-16.227 2.604-18.371 10.606l-13.033 48.639-27.188 15.697c-1.198-1.026-2.448-1.992-3.75-2.889l18.308-68.324c2.144-8.002-2.604-16.227-10.606-18.371s-16.227 2.604-18.371 10.606l-18.305 68.315c-23.177 1.799-41.489 21.219-41.489 44.85 0 2.808.271 5.552.766 8.219l-22.264 12.854c-6.446-6.261-14.413-10.955-23.291-13.476v-25.677c17.459-6.192 30-22.865 30-42.42 0-6.939-1.581-13.515-4.398-19.39l50.004-50.003c5.858-5.858 5.858-15.355 0-21.213s-15.355-5.858-21.213 0l-50.005 50.004c-1.422-.682-2.889-1.285-4.389-1.817v-31.368l35.606-35.606c5.858-5.858 5.858-15.355 0-21.213s-15.355-5.858-21.213 0l-29.392 29.393-29.394-29.394c-5.858-5.858-15.355-5.858-21.213 0s-5.858 15.355 0 21.213l35.607 35.607v31.367c-1.5.532-2.967 1.136-4.39 1.818l-50.004-50.004c-5.858-5.858-15.355-5.858-21.213 0s-5.858 15.355 0 21.213l50.004 50.005c-2.816 5.874-4.397 12.449-4.397 19.388 0 19.555 12.541 36.228 30 42.42v25.676c-8.878 2.521-16.845 7.215-23.291 13.476l-22.264-12.854c.494-2.667.766-5.411.766-8.219 0-23.631-18.312-43.051-41.489-44.85l-18.305-68.315c-2.144-8.002-10.369-12.75-18.371-10.606s-12.75 10.37-10.606 18.372l18.307 68.324c-1.302.897-2.551 1.864-3.75 2.889l-27.187-15.697-13.033-48.639c-2.144-8.002-10.369-12.75-18.371-10.606-8.002 2.144-12.751 10.369-10.607 18.371l10.759 40.152-40.152 10.758c-8.002 2.144-12.751 10.369-10.607 18.371 2.144 8.002 10.369 12.75 18.371 10.606l48.64-13.032 27.167 15.684c-.286 1.543-.492 3.114-.615 4.707l-68.315 18.305c-8.002 2.144-12.751 10.369-10.606 18.371s10.369 12.75 18.371 10.606l68.324-18.307c8.122 11.789 21.709 19.536 37.076 19.536 11.143 0 21.346-4.08 29.213-10.813l22.25 12.846c-1.091 4.312-1.675 8.823-1.675 13.468s.585 9.156 1.674 13.468l-22.25 12.846c-7.868-6.733-18.07-10.813-29.213-10.813-15.367 0-28.954 7.747-37.076 19.536l-68.324-18.307c-8.002-2.144-16.227 2.604-18.371 10.606s2.604 16.227 10.606 18.371l68.315 18.305c.124 1.594.329 3.164.615 4.707l-27.166 15.684-48.64-13.033c-8.002-2.144-16.227 2.605-18.371 10.606-2.144 8.002 2.605 16.227 10.607 18.371l40.152 10.758-10.759 40.152c-2.144 8.002 2.605 16.227 10.607 18.371 8.002 2.144 16.227-2.604 18.371-10.606l13.033-48.639 27.188-15.697c1.198 1.026 2.448 1.992 3.75 2.889l-18.308 68.325c-2.144 8.002 2.604 16.227 10.606 18.371s16.227-2.604 18.371-10.606l18.305-68.315c23.177-1.799 41.489-21.219 41.489-44.85 0-2.808-.271-5.552-.766-8.219l22.264-12.854c6.446 6.261 14.413 10.955 23.291 13.476v25.676c-17.459 6.192-30 22.865-30 42.42 0 6.939 1.581 13.515 4.398 19.39l-50.004 50.004c-5.858 5.858-5.858 15.355 0 21.213s15.355 5.858 21.213 0l50.005-50.004c1.423.682 2.889 1.285 4.389 1.817v31.367l-35.606 35.606c-5.858 5.858-5.858 15.355 0 21.213s15.355 5.858 21.213 0l29.392-29.392 29.394 29.394c5.858 5.858 15.355 5.858 21.213 0s5.858-15.355 0-21.213l-35.607-35.607v-31.367c1.5-.532 2.967-1.136 4.39-1.818l50.004 50.004c5.858 5.858 15.355 5.858 21.213 0s5.858-15.355 0-21.213l-50.004-50.005c2.816-5.874 4.397-12.45 4.397-19.388 0-19.555-12.541-36.228-30-42.42v-25.676c8.878-2.521 16.845-7.215 23.291-13.476l22.264 12.854c-.494 2.667-.766 5.411-.766 8.219 0 23.631 18.312 43.051 41.489 44.85l18.305 68.315c2.144 8.002 10.369 12.75 18.371 10.606s12.75-10.369 10.606-18.371l-18.307-68.324c1.302-.897 2.551-1.864 3.75-2.889l27.188 15.697 13.033 48.639c2.144 8.002 10.369 12.75 18.371 10.606 8.002-2.144 12.751-10.369 10.607-18.371l-10.759-40.152 40.152-10.758c8.001-2.145 12.75-10.37 10.606-18.372zm-268.201-81.977c0-13.785 11.215-25 25-25s25 11.215 25 25-11.215 25-25 25-25-11.215-25-25zm129.789-75.5c8.271 0 15 6.729 15 15s-6.729 15-15 15-15-6.729-15-15 6.728-15 15-15zm-104.789-30.5c-8.271 0-15-6.729-15-15s6.729-15 15-15 15 6.729 15 15-6.729 15-15 15zm-119.789 45.5c0-8.271 6.729-15 15-15s15 6.729 15 15-6.729 15-15 15-15-6.729-15-15zm15 136c-8.271 0-15-6.729-15-15s6.729-15 15-15 15 6.729 15 15-6.729 15-15 15zm104.789 30.5c8.271 0 15 6.729 15 15s-6.729 15-15 15-15-6.729-15-15 6.728-15 15-15zm89.789-45.5c0-8.271 6.729-15 15-15s15 6.729 15 15-6.729 15-15 15-15-6.729-15-15z" fill="#8bb9ff"/></g><path d="m499.201 337.977c-2.144-8.002-10.369-12.75-18.371-10.606l-48.64 13.032-27.167-15.684c.286-1.543.492-3.113.615-4.707l68.315-18.305c8.002-2.144 12.75-10.369 10.606-18.371s-10.369-12.75-18.371-10.606l-68.324 18.307c-8.122-11.789-21.708-19.536-37.076-19.536-11.143 0-21.346 4.08-29.213 10.813l-22.25-12.846c1.09-4.312 1.674-8.822 1.674-13.468s-.584-9.156-1.674-13.468l22.25-12.846c7.868 6.733 18.07 10.813 29.213 10.813 15.367 0 28.954-7.747 37.076-19.536l68.324 18.307c8.002 2.144 16.227-2.604 18.371-10.606s-2.604-16.227-10.606-18.371l-68.315-18.305c-.124-1.594-.329-3.164-.615-4.707l27.167-15.684 48.64 13.032c8.002 2.144 16.227-2.605 18.371-10.606 2.144-8.002-2.604-16.227-10.607-18.371l-40.152-10.758 10.759-40.152c2.144-8.002-2.605-16.227-10.607-18.371s-16.227 2.604-18.371 10.606l-13.033 48.639-27.188 15.697c-1.198-1.026-2.448-1.992-3.75-2.889l18.308-68.324c2.144-8.002-2.604-16.227-10.606-18.371s-16.227 2.604-18.371 10.606l-18.305 68.315c-23.177 1.799-41.489 21.219-41.489 44.85 0 2.808.271 5.552.766 8.219l-22.264 12.854c-6.446-6.261-14.413-10.955-23.291-13.476v-25.677c17.459-6.192 30-22.865 30-42.42 0-6.939-1.581-13.515-4.398-19.39l50.004-50.003c5.858-5.858 5.858-15.355 0-21.213s-15.355-5.858-21.213 0l-50.005 50.004c-1.422-.682-2.889-1.285-4.389-1.817v-31.368l35.606-35.606c5.858-5.858 5.858-15.355 0-21.213s-15.355-5.858-21.213 0l-29.392 29.393v86.213c8.271 0 15 6.729 15 15s-6.729 15-15 15v81c13.785 0 25 11.215 25 25s-11.215 25-25 25v81c8.271 0 15 6.729 15 15s-6.729 15-15 15v86.213l29.394 29.394c5.858 5.858 15.355 5.858 21.213 0s5.858-15.355 0-21.213l-35.607-35.607v-31.367c1.5-.532 2.967-1.136 4.39-1.818l50.004 50.004c5.858 5.858 15.355 5.858 21.213 0s5.858-15.355 0-21.213l-50.004-50.005c2.816-5.874 4.397-12.45 4.397-19.388 0-19.555-12.541-36.228-30-42.42v-25.676c8.878-2.521 16.845-7.215 23.291-13.476l22.264 12.854c-.494 2.667-.766 5.411-.766 8.219 0 23.631 18.312 43.051 41.489 44.85l18.305 68.315c2.144 8.002 10.369 12.75 18.371 10.606s12.75-10.369 10.606-18.371l-18.307-68.324c1.302-.897 2.551-1.864 3.75-2.889l27.188 15.697 13.033 48.639c2.144 8.002 10.369 12.75 18.371 10.606s12.751-10.369 10.607-18.371l-10.759-40.152 40.152-10.758c8.001-2.145 12.75-10.37 10.606-18.372zm-138.412-157.477c8.271 0 15 6.729 15 15s-6.729 15-15 15-15-6.729-15-15 6.728-15 15-15zm0 151c-8.271 0-15-6.729-15-15s6.729-15 15-15 15 6.729 15 15-6.729 15-15 15z" fill="#7d81e7"/></g></svg>