<svg id="Capa_1" enable-background="new 0 0 512 512" height="512" viewBox="0 0 512 512" width="512" xmlns="http://www.w3.org/2000/svg"><g><g><path d="m400.296 510.869c-7.662-3.151-11.319-11.916-8.169-19.577l20.124-48.94-39.044-23.739c-6.309-3.836-8.888-11.692-6.08-18.521l25-60.8c3.15-7.662 11.915-11.319 19.577-8.169 7.662 3.15 11.319 11.915 8.169 19.577l-20.124 48.94 39.044 23.739c6.309 3.836 8.888 11.692 6.08 18.521l-25 60.8c-3.15 7.662-11.915 11.319-19.577 8.169z" fill="#ffc178"/><path d="m300.296 510.869c-7.662-3.151-11.319-11.916-8.169-19.577l20.124-48.94-39.044-23.739c-6.309-3.836-8.888-11.692-6.08-18.521l25-60.8c3.15-7.662 11.915-11.319 19.577-8.169 7.662 3.15 11.319 11.915 8.169 19.577l-20.124 48.94 39.044 23.739c6.309 3.836 8.888 11.692 6.08 18.521l-25 60.8c-3.15 7.662-11.915 11.319-19.577 8.169z" fill="#ffc178"/><g fill="#fff68e"><path d="m100.296 510.869c-7.662-3.15-11.319-11.915-8.169-19.577l20.123-48.94-39.043-23.739c-6.309-3.836-8.888-11.692-6.08-18.521l25-60.8c3.15-7.662 11.915-11.319 19.577-8.168 7.662 3.15 11.319 11.915 8.169 19.577l-20.123 48.94 39.043 23.739c6.309 3.836 8.888 11.692 6.08 18.521l-25 60.8c-3.151 7.661-11.916 11.318-19.577 8.168z"/><path d="m200.296 510.869c-7.662-3.15-11.319-11.915-8.169-19.577l20.123-48.94-39.043-23.739c-6.309-3.836-8.888-11.692-6.08-18.521l25-60.8c3.15-7.662 11.915-11.319 19.577-8.168 7.662 3.15 11.319 11.915 8.169 19.577l-20.123 48.94 39.043 23.739c6.309 3.836 8.888 11.692 6.08 18.521l-25 60.8c-3.151 7.661-11.916 11.318-19.577 8.168z"/></g></g><g><path d="m407 360h-302c-57.897 0-105-47.103-105-105 0-53.36 40.006-97.55 91.601-104.149 7.198-84.385 78.182-150.851 164.399-150.851 86.784 0 158.228 66.538 165.407 150.985 51.104 7.044 90.593 51.005 90.593 104.015 0 57.897-47.103 105-105 105z" fill="#5e54ac"/><path d="m421.407 150.985c-7.179-84.447-78.623-150.985-165.407-150.985v360h151c57.897 0 105-47.103 105-105 0-53.01-39.489-96.971-90.593-104.015z" fill="#453d81"/></g></g></svg>