<svg id="Capa_1" enable-background="new 0 0 512 512" height="512" viewBox="0 0 512 512" width="512" xmlns="http://www.w3.org/2000/svg"><g><g><g fill="#453d81"><path d="m497 90h-30c-8.284 0-15-6.716-15-15s6.716-15 15-15h30c8.284 0 15 6.716 15 15s-6.716 15-15 15z"/><path d="m482 150h-15c-8.284 0-15-6.716-15-15s6.716-15 15-15h15c8.284 0 15 6.716 15 15s-6.716 15-15 15z"/><path d="m497 210h-30c-8.284 0-15-6.716-15-15s6.716-15 15-15h30c8.284 0 15 6.716 15 15s-6.716 15-15 15z"/><path d="m482 270h-15c-8.284 0-15-6.716-15-15s6.716-15 15-15h15c8.284 0 15 6.716 15 15s-6.716 15-15 15z"/><path d="m497 330h-30c-8.284 0-15-6.716-15-15s6.716-15 15-15h30c8.284 0 15 6.716 15 15s-6.716 15-15 15z"/></g><g><path d="m242 407c0 57.99 47.01 105 105 105s105-47.01 105-105c0-33.445-15.638-63.236-40-82.465v-259.535c0-35.898-29.101-65-65-65-35.898 0-65 29.101-65 65v259.536c-24.362 19.228-40 49.019-40 82.464z" fill="#e2dff4"/><path d="m452 407c0-33.445-15.638-63.236-40-82.465v-259.535c0-35.898-29.101-65-65-65v512c57.99 0 105-47.01 105-105z" fill="#bebcdd"/><path d="m347 482c-41.355 0-75-33.645-75-75 0-23.103 10.419-44.577 28.586-58.916l11.414-9.008v-274.076c0-19.299 15.701-35 35-35s35 15.701 35 35v274.076l11.414 9.008c18.167 14.339 28.586 35.813 28.586 58.916 0 41.355-33.645 75-75 75z" fill="#f9f9f9"/><path d="m347 482c41.355 0 75-33.645 75-75 0-23.103-10.419-44.577-28.586-58.916l-11.414-9.008v-274.076c0-19.299-15.701-35-35-35z" fill="#e2dff4"/><path d="m362 364.58v-109.58c0-8.284-6.716-15-15-15s-15 6.716-15 15v109.58c-17.459 6.192-30 22.865-30 42.42 0 24.813 20.187 45 45 45s45-20.187 45-45c0-19.555-12.541-36.228-30-42.42z" fill="#ff7d47"/><g><path d="m362 364.58v-109.58c0-8.284-6.716-15-15-15v212c24.813 0 45-20.187 45-45 0-19.555-12.541-36.228-30-42.42z" fill="#ff405c"/></g></g></g><g><path d="m145 270c-52.383 0-95-42.617-95-95 0-21.297 13.747-55.347 42.025-104.095 20.066-34.591 39.803-63.228 40.633-64.43 2.8-4.055 7.414-6.475 12.342-6.475s9.542 2.42 12.342 6.475c.831 1.202 20.567 29.839 40.633 64.43 28.278 48.748 42.025 82.798 42.025 104.095 0 52.383-42.617 95-95 95z" fill="#8bb9ff"/><path d="m55 170c-30.327 0-55-24.673-55-55 0-7.66 2.283-21.779 22.025-55.811 10.18-17.548 20.211-32.103 20.633-32.714 2.8-4.055 7.414-6.475 12.342-6.475s9.542 2.42 12.342 6.475c.422.611 10.453 15.166 20.633 32.714 19.742 34.032 22.025 48.151 22.025 55.811 0 30.327-24.673 55-55 55z" fill="#8bb9ff"/><g fill="#7d81e7"><path d="m197.975 70.905c-20.066-34.591-39.803-63.228-40.633-64.43-2.8-4.055-7.414-6.475-12.342-6.475v270c52.383 0 95-42.617 95-95 0-21.297-13.747-55.347-42.025-104.095z"/><path d="m87.975 59.189c-10.18-17.548-20.211-32.103-20.633-32.714-2.8-4.055-7.414-6.475-12.342-6.475v150c30.327 0 55-24.673 55-55 0-7.66-2.283-21.779-22.025-55.811z"/></g></g></g></svg>