<svg id="Capa_1" enable-background="new 0 0 512 512" height="512" viewBox="0 0 512 512" width="512" xmlns="http://www.w3.org/2000/svg"><g><g fill="#ffc178"><path d="m400.296 510.869c-7.662-3.15-11.319-11.915-8.169-19.577l20.123-48.94-39.043-23.739c-6.309-3.836-8.888-11.692-6.08-18.521l30.705-74.672 27.746 11.409-25.828 62.813 39.043 23.739c6.309 3.836 8.888 11.692 6.08 18.521l-25 60.8c-3.151 7.66-11.916 11.317-19.577 8.167z"/><path d="m310.296 510.869c-7.662-3.15-11.319-11.915-8.169-19.577l20.123-48.94-39.043-23.739c-6.309-3.836-8.888-11.692-6.08-18.521l30.705-74.672 27.746 11.409-25.828 62.813 39.043 23.739c6.309 3.836 8.888 11.692 6.08 18.521l-25 60.8c-3.151 7.66-11.916 11.317-19.577 8.167z"/></g><g><g fill="#8bb9ff"><path d="m158.97 400.805c-7.706-3.042-11.487-11.754-8.445-19.46l16.523-41.857c3.042-7.706 11.754-11.487 19.46-8.445 7.706 3.042 11.487 11.754 8.445 19.46l-16.523 41.857c-3.042 7.706-11.754 11.487-19.46 8.445z"/><path d="m115.492 510.948c-7.706-3.042-11.487-11.754-8.445-19.46l16.523-41.857c3.042-7.706 11.754-11.487 19.46-8.445 7.706 3.042 11.487 11.754 8.445 19.46l-16.523 41.857c-3.041 7.706-11.754 11.487-19.46 8.445z"/></g><g fill="#8bb9ff"><path d="m83.97 400.805c-7.706-3.042-11.487-11.754-8.445-19.46l16.523-41.857c3.042-7.706 11.754-11.487 19.46-8.445 7.706 3.042 11.487 11.754 8.445 19.46l-16.523 41.857c-3.042 7.706-11.754 11.487-19.46 8.445z"/><path d="m40.492 510.948c-7.706-3.042-11.487-11.754-8.445-19.46l16.523-41.857c3.042-7.706 11.754-11.487 19.46-8.445 7.706 3.042 11.487 11.754 8.445 19.46l-16.523 41.857c-3.041 7.706-11.754 11.487-19.46 8.445z"/></g><g><path d="m233.97 400.805c-7.706-3.042-11.487-11.754-8.445-19.46l16.523-41.857c3.042-7.706 11.754-11.487 19.46-8.445 7.706 3.042 11.487 11.754 8.445 19.46l-16.523 41.857c-3.042 7.706-11.754 11.487-19.46 8.445z" fill="#8bb9ff"/><path d="m256 385.85 13.952-35.346c3.042-7.706-.739-16.418-8.445-19.46-1.81-.714-3.673-1.039-5.508-1.038v55.844z" fill="#7d81e7"/><path d="m190.492 510.948c-7.706-3.042-11.487-11.754-8.445-19.46l16.523-41.857c3.042-7.706 11.754-11.487 19.46-8.445 7.706 3.042 11.487 11.754 8.445 19.46l-16.523 41.857c-3.041 7.706-11.754 11.487-19.46 8.445z" fill="#8bb9ff"/></g></g><g><path d="m407 360h-302c-57.897 0-105-47.103-105-105 0-53.36 40.006-97.55 91.601-104.149 7.198-84.385 78.182-150.851 164.399-150.851 86.784 0 158.228 66.538 165.407 150.985 51.104 7.044 90.593 51.005 90.593 104.015 0 57.897-47.103 105-105 105z" fill="#5e54ac"/><path d="m421.407 150.985c-7.179-84.447-78.623-150.985-165.407-150.985v360h151c57.897 0 105-47.103 105-105 0-53.01-39.489-96.971-90.593-104.015z" fill="#453d81"/></g></g></svg>