<svg id="Capa_1" enable-background="new 0 0 512 512" height="512" viewBox="0 0 512 512" width="512" xmlns="http://www.w3.org/2000/svg"><g><path d="m256 222c-74.439 0-135 60.561-135 135h270c0-74.44-60.561-135-135-135z" fill="#fff68e"/><g><path d="m256 222v135h135c0-74.44-60.561-135-135-135z" fill="#ffc178"/></g><path d="m118.114 240.327-42.427-42.427c-5.858-5.858-5.858-15.355 0-21.213 5.858-5.858 15.355-5.858 21.213 0l42.427 42.427c5.858 5.858 5.858 15.355 0 21.213-5.858 5.858-15.355 5.858-21.213 0z" fill="#fff68e"/><g fill="#8bb9ff"><path d="m497 372h-482c-8.284 0-15-6.716-15-15s6.716-15 15-15h482c8.284 0 15 6.716 15 15s-6.716 15-15 15z"/><path d="m446 442h-380c-8.284 0-15-6.716-15-15s6.716-15 15-15h380c8.284 0 15 6.716 15 15s-6.716 15-15 15z"/><path d="m396 512h-280c-8.284 0-15-6.716-15-15s6.716-15 15-15h280c8.284 0 15 6.716 15 15s-6.716 15-15 15z"/></g><path d="m372.673 240.327c-5.858-5.858-5.858-15.355 0-21.213l42.427-42.427c5.858-5.858 15.355-5.858 21.213 0 5.858 5.858 5.858 15.355 0 21.213l-42.427 42.427c-5.858 5.858-15.355 5.858-21.213 0z" fill="#ffc178"/><path d="m256 192c-8.284 0-15-6.716-15-15v-60c0-8.284 6.716-15 15-15 8.284 0 15 6.716 15 15v60c0 8.284-6.716 15-15 15z" fill="#fff68e"/><g><g><g fill="#7d81e7"><path d="m497 342h-241v30h241c8.284 0 15-6.716 15-15s-6.716-15-15-15z"/><path d="m446 442c8.284 0 15-6.716 15-15s-6.716-15-15-15h-190v30z"/><path d="m396 512c8.284 0 15-6.716 15-15s-6.716-15-15-15h-140v30z"/></g><path d="m271 177v-60c0-8.284-6.716-15-15-15v90c8.284 0 15-6.716 15-15z" fill="#ffc178"/></g></g><g><path d="m173.259 196.443-11.481-27.717c-3.17-7.654.464-16.428 8.118-19.599 7.654-3.17 16.428.464 19.599 8.118l11.481 27.717c3.17 7.654-.464 16.428-8.118 19.598h-.001c-7.654 3.171-16.428-.464-19.598-8.117z" fill="#fff68e"/></g><g><path d="m83.962 301.975-27.717-11.48c-7.654-3.17-11.288-11.945-8.118-19.599 3.17-7.654 11.945-11.288 19.599-8.118l27.717 11.48c7.654 3.17 11.288 11.945 8.118 19.599-3.171 7.654-11.945 11.289-19.599 8.118z" fill="#fff68e"/></g><g><path d="m408.439 293.857c-3.17-7.654.464-16.428 8.118-19.599l27.717-11.481c7.654-3.17 16.428.464 19.598 8.118v.001c3.17 7.654-.464 16.428-8.118 19.598l-27.717 11.481c-7.653 3.171-16.427-.464-19.598-8.118z" fill="#ffc178"/></g><g><path d="m319.143 204.561c-7.654-3.17-11.289-11.945-8.119-19.598l11.481-27.718c3.17-7.654 11.945-11.288 19.598-8.118h.001c7.654 3.17 11.288 11.945 8.118 19.598l-11.481 27.718c-3.17 7.653-11.944 11.288-19.598 8.118z" fill="#ffc178"/></g><g><path d="m105.606 105.607-40 40c-5.858 5.858-15.355 5.858-21.213 0l-40-40c-5.858-5.858-5.858-15.355 0-21.213s15.355-5.858 21.213 0l14.394 14.393v-83.787c0-8.284 6.716-15 15-15s15 6.716 15 15v83.787l14.394-14.394c5.858-5.858 15.355-5.858 21.213 0s5.857 15.356-.001 21.214z" fill="#5e54ac"/><path d="m105.606 105.607-40 40c-2.929 2.929-6.767 4.393-10.606 4.393v-150c8.284 0 15 6.716 15 15v83.787l14.394-14.394c5.858-5.858 15.355-5.858 21.213 0s5.857 15.356-.001 21.214z" fill="#453d81"/></g></g></svg>