<svg id="Capa_1" enable-background="new 0 0 512 512" height="512" viewBox="0 0 512 512" width="512" xmlns="http://www.w3.org/2000/svg"><g><path d="m331.65 451.367-63.611-209.006v-86.361h158.466v78.003l-66.155 217.364c-4.314 14.177-24.385 14.177-28.7 0z" fill="#bebcdd"/><path d="m241.109 498.805-30.237-249.45-30.32 121.282c-3.881 15.524-26.123 14.995-29.261-.696l-26.918-134.589-43.821 175.286c-4.023 16.094-27.333 14.715-29.432-1.74l-50-392c-1.143-8.965 5.843-16.898 14.88-16.898h480c9.078 0 16.076 8.001 14.866 16.998l-50 372c-2.232 16.605-25.875 17.611-29.509 1.256l-46.682-210.069-24.181 90.68c-3.835 14.382-24.017 15-28.724.878l-28.101-84.304-32.751 311.132c-1.87 17.765-27.659 17.968-29.809.234z" fill="#f9f9f9"/><path d="m496 0h-240v511.996c6.989-.004 13.977-4.492 14.918-13.425l32.751-311.132 28.101 84.304c4.707 14.121 24.888 13.504 28.724-.879l24.181-90.68 46.682 210.069c3.635 16.355 27.277 15.349 29.509-1.256l50-372c1.21-8.996-5.788-16.997-14.866-16.997z" fill="#e2dff4"/></g></svg>