<svg id="Capa_1" enable-background="new 0 0 512 512" height="512" viewBox="0 0 512 512" width="512" xmlns="http://www.w3.org/2000/svg"><g><g><path d="m502.1 312.894c-5.94-2.146-12.591-.343-16.632 4.514-13.193 15.858-30.494 24.592-48.718 24.592s-35.525-8.734-48.718-24.593c-2.85-3.426-7.076-5.407-11.532-5.407s-8.682 1.981-11.532 5.407c-13.193 15.859-30.494 24.593-48.718 24.593s-35.525-8.734-48.718-24.593c-2.85-3.426-7.076-5.407-11.532-5.407s-8.682 1.981-11.532 5.407c-13.193 15.859-30.494 24.593-48.718 24.593s-35.525-8.734-48.718-24.593c-2.85-3.426-7.076-5.407-11.532-5.407s-8.682 1.981-11.532 5.407c-13.193 15.859-30.494 24.593-48.718 24.593-18.063 0-35.221-8.581-48.369-24.176-3.726-4.419-9.523-6.74-15.161-5.463-6.939 1.571-11.72 7.696-11.72 14.639v74.283c0 29.115 23.602 52.717 52.717 52.717h406.566c29.115 0 52.717-23.602 52.717-52.717v-74.283c0-6.317-3.958-11.958-9.9-14.106z" fill="#bdfdff"/><g><path d="m502.1 312.894c-5.94-2.146-12.591-.343-16.632 4.514-13.193 15.858-30.494 24.592-48.718 24.592s-35.525-8.734-48.718-24.593c-2.85-3.426-7.076-5.407-11.532-5.407s-8.682 1.981-11.532 5.407c-13.193 15.859-30.494 24.593-48.718 24.593s-35.525-8.734-48.718-24.593c-2.85-3.426-7.076-5.407-11.532-5.407v142h203.283c29.115 0 52.717-23.602 52.717-52.717v-74.283c0-6.317-3.958-11.958-9.9-14.106z" fill="#8bb9ff"/></g><path d="m3.55 476.69c18.985 22.772 44.444 35.31 71.7 35.31 22.096 0 43.008-8.238 60.25-23.49 17.242 15.252 38.154 23.49 60.25 23.49s43.008-8.238 60.25-23.49c17.242 15.252 38.154 23.49 60.25 23.49s43.008-8.238 60.25-23.49c17.242 15.252 38.154 23.49 60.25 23.49 27.256 0 52.715-12.538 71.7-35.31 2.272-2.725 3.55-6.143 3.55-9.69v-65.717c-1.181-1.246-2.345-2.525-3.468-3.876-5.997-7.21-17.066-7.21-23.063 0-13.194 15.859-30.495 24.593-48.719 24.593s-35.525-8.733-48.718-24.593c-5.997-7.21-17.066-7.21-23.063 0-13.194 15.859-30.495 24.593-48.719 24.593s-35.525-8.733-48.718-24.593c-5.997-7.21-17.066-7.21-23.063 0-13.194 15.859-30.495 24.593-48.719 24.593s-35.525-8.733-48.718-24.593c-5.997-7.21-17.066-7.21-23.063 0-13.194 15.859-30.495 24.593-48.719 24.593s-35.525-8.733-48.718-24.593c-5.997-7.21-17.066-7.21-23.063 0-1.123 1.351-2.287 2.63-3.468 3.876l-.001 65.717c0 3.548 1.278 6.966 3.55 9.69z" fill="#8bb9ff"/></g><g><g><path d="m508.532 397.407c-5.998-7.21-17.066-7.21-23.063 0-13.194 15.859-30.495 24.593-48.719 24.593s-35.525-8.733-48.718-24.593c-5.997-7.209-17.066-7.209-23.063 0-13.194 15.859-30.495 24.593-48.719 24.593s-35.525-8.733-48.718-24.593c-2.999-3.605-7.266-5.407-11.532-5.407v96.51c17.242 15.252 38.154 23.49 60.25 23.49s43.008-8.238 60.25-23.49c17.242 15.252 38.154 23.49 60.25 23.49 27.256 0 52.715-12.538 71.7-35.31 2.272-2.725 3.55-6.143 3.55-9.69v-65.717c-1.181-1.246-2.345-2.526-3.468-3.876z" fill="#7d81e7"/></g></g><path d="m105.607 234.394c-5.858-5.858-15.355-5.858-21.213 0l-14.394 14.393v-73.787c0-8.284-6.716-15-15-15s-15 6.716-15 15v73.787l-14.394-14.394c-5.858-5.858-15.355-5.858-21.213 0-5.858 5.858-5.858 15.355 0 21.213l40 40c5.858 5.858 15.355 5.858 21.213 0l40-40c5.859-5.857 5.859-15.355.001-21.212z" fill="#5e54ac"/><g><g><g><path d="m167.653 213.347c-22.634-22.634-36.653-53.884-36.653-88.347 0-68.925 56.075-125 125-125 8.538 0 17.117.881 25.497 2.62 6.826 1.415 11.779 7.35 11.948 14.323.17 6.972-4.488 13.14-11.239 14.886-24.262 6.276-41.206 28.141-41.205 53.171-.001 14.691 5.72 28.503 16.108 38.891 10.388 10.389 24.2 16.109 38.891 16.109 25.03 0 46.895-16.945 53.171-41.206 1.746-6.751 7.915-11.408 14.886-11.239 6.97.168 12.906 5.121 14.322 11.948 1.739 8.38 2.621 16.959 2.62 25.497 0 68.925-56.075 125-125 125-34.461 0-65.712-14.019-88.346-36.653z" fill="#fff68e"/><path d="m381 125c0-8.538-.881-17.117-2.62-25.497-1.416-6.828-7.352-11.78-14.322-11.948-6.971-.169-13.14 4.488-14.886 11.239-6.278 24.261-28.142 41.206-53.172 41.206-14.691 0-28.503-5.72-38.891-16.109l-89.456 89.456c22.634 22.634 53.885 36.653 88.347 36.653 68.925 0 125-56.075 125-125z" fill="#ffc178"/></g></g></g><path d="m105.607 234.394c-5.858-5.858-15.355-5.858-21.213 0l-14.394 14.393v-73.787c0-8.284-6.716-15-15-15v140c3.839 0 7.678-1.465 10.607-4.394l40-40c5.858-5.857 5.858-15.355 0-21.212z" fill="#453d81"/><g><path d="m507.606 225.606c-5.858 5.858-15.355 5.858-21.213 0l-14.393-14.393v73.787c0 8.284-6.716 15-15 15s-15-6.716-15-15v-73.787l-14.394 14.394c-5.858 5.858-15.355 5.858-21.213 0-5.858-5.858-5.858-15.355 0-21.213l40-40c5.858-5.858 15.355-5.858 21.213 0l40 40c5.858 5.857 5.858 15.355 0 21.212z" fill="#5e54ac"/><path d="m507.606 225.606c-5.858 5.858-15.355 5.858-21.213 0l-14.393-14.393v73.787c0 8.284-6.716 15-15 15v-140c3.839 0 7.678 1.465 10.607 4.394l40 40c5.857 5.857 5.857 15.355-.001 21.212z" fill="#453d81"/></g></g></svg>