<svg id="Capa_1" enable-background="new 0 0 512 512" height="512" viewBox="0 0 512 512" width="512" xmlns="http://www.w3.org/2000/svg"><g><g><path d="m366 497h-220c-22.091 0-40-17.909-40-40v-402c0-22.091 17.909-40 40-40h220c22.091 0 40 17.909 40 40v402c0 22.091-17.909 40-40 40z" fill="#bdfdff"/><path d="m366 15h-110v482h110c22.091 0 40-17.909 40-40v-402c0-22.091-17.909-40-40-40z" fill="#8bb9ff"/><g><path d="m121 457c0 13.785 11.215 25 25 25h220c13.785 0 25-11.215 25-25v-40h-270z" fill="none"/><path d="m366 30h-220c-13.785 0-25 11.215-25 25v362h270v-362c0-13.785-11.215-25-25-25z" fill="none"/><path d="m366 0h-220c-30.327 0-55 24.673-55 55v402c0 30.327 24.673 55 55 55h220c30.327 0 55-24.673 55-55v-402c0-30.327-24.673-55-55-55zm25 417h-120l-15 10-15-10h-120v-362c0-13.785 11.215-25 25-25h39.845l16.228 40.571c2.278 5.695 7.794 9.429 13.927 9.429h80c6.134 0 11.649-3.734 13.927-9.429l16.228-40.571h39.845c13.785 0 25 11.215 25 25z" fill="#5e54ac"/><path d="m366 0h-110v80h40c6.134 0 11.649-3.734 13.927-9.429l16.228-40.571h39.845c13.785 0 25 11.215 25 25v362h-120l-15 10v85h110c30.327 0 55-24.673 55-55v-402c0-30.327-24.673-55-55-55z" fill="#453d81"/></g><path d="m241 417v30c0 8.284 6.716 15 15 15s15-6.716 15-15v-30z" fill="#453d81"/><g><g><g fill="none"><path d="m121 457c0 13.785 11.215 25 25 25h220c13.785 0 25-11.215 25-25v-40h-270z"/><path d="m366 30h-220c-13.785 0-25 11.215-25 25v362h270v-362c0-13.785-11.215-25-25-25z"/></g></g><path d="m256 462c8.284 0 15-6.716 15-15v-30h-15z" fill="#2e2654"/></g></g><g><g><path d="m303.5 267c-37.22 0-67.5-30.28-67.5-67.5s30.28-67.5 67.5-67.5 67.5 30.28 67.5 67.5-30.28 67.5-67.5 67.5z" fill="#fff68e"/><path d="m303.5 132v135c37.22 0 67.5-30.28 67.5-67.5s-30.28-67.5-67.5-67.5z" fill="#ffc178"/><g><g><g><g><g><g><g><g><path d="m318.5 352h-125c-28.948 0-52.5-23.552-52.5-52.5 0-24.143 16.383-44.532 38.613-50.637 6.257-36.5 38.129-64.363 76.387-64.363s70.13 27.863 76.387 64.363c22.23 6.105 38.613 26.494 38.613 50.637 0 28.948-23.552 52.5-52.5 52.5z" fill="#f9f9f9"/></g></g></g></g></g></g></g></g><path d="m318.5 352c28.948 0 52.5-23.552 52.5-52.5 0-24.143-16.383-44.532-38.613-50.637-6.257-36.5-38.129-64.363-76.387-64.363v167.5z" fill="#e2dff4"/></g></g></g></svg>