<svg id="Capa_1" enable-background="new 0 0 512 512" height="512" viewBox="0 0 512 512" width="512" xmlns="http://www.w3.org/2000/svg"><g><g><path d="m242 407c0 57.99 47.01 105 105 105s105-47.01 105-105c0-33.445-15.638-63.236-40-82.465v-259.535c0-35.898-29.101-65-65-65-35.898 0-65 29.101-65 65v259.536c-24.362 19.228-40 49.019-40 82.464z" fill="#e2dff4"/><path d="m452 407c0-33.445-15.638-63.236-40-82.465v-259.535c0-35.898-29.101-65-65-65v512c57.99 0 105-47.01 105-105z" fill="#bebcdd"/><path d="m347 482c-41.355 0-75-33.645-75-75 0-23.103 10.419-44.577 28.586-58.916l11.414-9.008v-274.076c0-19.299 15.701-35 35-35s35 15.701 35 35v274.076l11.414 9.008c18.167 14.339 28.586 35.813 28.586 58.916 0 41.355-33.645 75-75 75z" fill="#f9f9f9"/><path d="m347 482c41.355 0 75-33.645 75-75 0-23.103-10.419-44.577-28.586-58.916l-11.414-9.008v-274.076c0-19.299-15.701-35-35-35z" fill="#e2dff4"/><g><path d="m362 364.58v-169.58c0-8.284-6.716-15-15-15s-15 6.716-15 15v169.58c-17.459 6.192-30 22.865-30 42.42 0 24.813 20.187 45 45 45s45-20.187 45-45c0-19.555-12.541-36.228-30-42.42z" fill="#ff7d47"/><g><path d="m362 364.58v-169.58c0-8.284-6.716-15-15-15v272c24.813 0 45-20.187 45-45 0-19.555-12.541-36.228-30-42.42z" fill="#ff405c"/></g></g><g fill="#453d81"><path d="m497 90h-30c-8.284 0-15-6.716-15-15s6.716-15 15-15h30c8.284 0 15 6.716 15 15s-6.716 15-15 15z"/><path d="m482 150h-15c-8.284 0-15-6.716-15-15s6.716-15 15-15h15c8.284 0 15 6.716 15 15s-6.716 15-15 15z"/><path d="m497 210h-30c-8.284 0-15-6.716-15-15s6.716-15 15-15h30c8.284 0 15 6.716 15 15s-6.716 15-15 15z"/><path d="m482 270h-15c-8.284 0-15-6.716-15-15s6.716-15 15-15h15c8.284 0 15 6.716 15 15s-6.716 15-15 15z"/><path d="m497 330h-30c-8.284 0-15-6.716-15-15s6.716-15 15-15h30c8.284 0 15 6.716 15 15s-6.716 15-15 15z"/></g></g><g fill="#5e54ac"><path d="m228.631 334.205-85.993-82.963 79.339-72.927c6.099-5.606 6.499-15.096.893-21.195-5.605-6.099-15.095-6.5-21.194-.892l-71.676 65.884v-57.112c0-8.284-6.716-15-15-15s-15 6.716-15 15v180c0 8.284 6.716 15 15 15s15-6.716 15-15v-64.266l77.802 75.061c2.911 2.809 6.664 4.205 10.413 4.205 3.929 0 7.853-1.534 10.796-4.585 5.753-5.962 5.582-15.458-.38-21.21z"/><path d="m45 90c-24.813 0-45 20.187-45 45s20.187 45 45 45 45-20.187 45-45-20.187-45-45-45zm0 60c-8.271 0-15-6.729-15-15s6.729-15 15-15 15 6.729 15 15-6.729 15-15 15z"/></g></g></svg>